<svg width="180" height="180" viewBox="0 0 180 180" fill="none" xmlns="http://www.w3.org/2000/svg">
<g clip-path="url(#clip0_18828_90)">
<path d="M86.7694 6.77835C86.7694 6.31701 86.4009 5.94252 85.9465 5.94781C77.0515 6.05147 68.253 7.83522 60.001 11.2079C59.5795 11.3802 59.3809 11.8696 59.5555 12.2956C59.73 12.7215 60.2115 12.9227 60.6331 12.7505C68.6848 9.46234 77.2684 7.72211 85.9465 7.6186C86.4009 7.61317 86.7694 7.2397 86.7694 6.77835Z" fill="white"/>
<path d="M94.8922 0.389074L95.5303 6.27835C95.6689 7.572 95.7985 8.76819 95.8381 9.95101L95.9056 9.96061C96.316 8.86756 96.8479 7.72104 97.3816 6.57452L99.9817 1.14195L101.655 1.39037L102.554 7.22421C102.772 8.62297 102.919 9.84594 103.007 11.0135L103.075 11.023C103.418 9.91848 103.879 8.7873 104.428 7.52613L106.788 2.1528L108.756 2.44516L103.635 13.0887L101.826 12.8192L100.911 7.24142C100.705 5.93821 100.546 4.78405 100.461 3.42925L100.416 3.42161C99.9538 4.71908 99.4498 5.82165 98.8954 6.96434L96.3736 12.009L94.5655 11.7434L92.8555 0.0871582L94.8922 0.389074Z" fill="white"/>
<path d="M112.862 10.1917C111.987 12.8191 113.246 14.4911 115.139 15.1829C116.495 15.6778 117.396 15.7351 118.215 15.6873L118.051 17.1874C117.276 17.2504 116.013 17.1855 114.355 16.5797C111.15 15.4083 109.99 12.5574 111.114 9.35473C112.24 6.15022 114.975 4.30242 118.011 5.41072C121.411 6.65277 121.242 10.0331 120.557 11.986C120.418 12.3816 120.266 12.672 120.176 12.8631L112.862 10.1917ZM118.898 10.8376C119.352 9.61651 119.505 7.5184 117.375 6.74067C115.461 6.0413 113.99 7.53369 113.367 8.81778L118.898 10.8376Z" fill="white"/>
<path d="M132.012 16.4921C132.821 15.3053 133.436 14.3213 133.999 13.4155L135.482 14.4665L134.474 16.1079L134.511 16.1347C135.958 15.485 137.482 15.5729 138.966 16.6258C141.162 18.1832 141.522 21.2501 139.603 24.0628C137.333 27.3935 134.221 27.6285 132.081 26.1113C130.88 25.2591 130.195 23.9788 130.277 22.6736L130.24 22.6469L126.807 27.6801L125.176 26.5221L132.012 16.4921ZM131.959 20.1188C131.789 20.3673 131.671 20.6233 131.564 20.8602C131.068 22.2399 131.515 23.7494 132.698 24.5883C134.442 25.8266 136.448 25.0909 137.896 22.966C139.163 21.1087 139.289 18.8424 137.544 17.6041C136.419 16.8054 134.808 16.8838 133.627 17.9195C133.426 18.0895 133.202 18.2997 133.044 18.529L131.959 20.1188Z" fill="white"/>
<path d="M144.525 25.9887C145.422 25.0257 146.177 24.181 146.835 23.3708L148.11 24.6072L146.664 26.262L146.73 26.327C148.118 25.5817 149.641 25.7384 150.619 26.6862C150.784 26.8468 150.885 26.9767 150.987 27.1391L149.681 28.5417C149.563 28.364 149.43 28.2015 149.231 28.0085C148.205 27.013 146.733 27.1009 145.498 28.0238C145.274 28.1938 145.021 28.3983 144.786 28.6525L140.724 33.015L139.281 31.6181L144.525 25.9887Z" fill="white"/>
<path d="M156.112 42.3595C152.892 44.9353 149.741 43.7812 148.09 41.6353C146.242 39.2314 146.545 35.9983 149.296 33.7969C152.209 31.4657 155.413 32.0447 157.303 34.502C159.265 37.0531 158.774 40.2289 156.112 42.3595ZM150.606 35.3868C148.698 36.9116 148.122 39.1817 149.334 40.7601C150.518 42.3003 152.828 42.3213 154.79 40.7525C156.264 39.5734 157.556 37.3244 156.089 35.4174C154.622 33.5065 152.262 34.0625 150.606 35.3868Z" fill="white"/>
<path d="M163.749 44.5259L159.312 49.4903C158.602 50.3063 157.939 51.0171 157.242 51.665L157.274 51.7261C158.197 51.5083 159.155 51.3516 160.213 51.1929L166.705 50.1056L167.705 51.9917L155.908 53.4611L154.996 51.7375L162.728 42.5979L163.749 44.5259Z" fill="white"/>
<path d="M159.172 60.6689L169.493 56.6102L170.217 58.5249L159.895 62.5836L159.172 60.6689ZM173.201 57.602C172.569 57.8752 171.876 57.5981 171.589 56.8376C171.334 56.163 171.667 55.4828 172.305 55.2325C172.966 54.9727 173.667 55.2707 173.929 55.9682C174.201 56.6829 173.862 57.3421 173.201 57.602Z" fill="white"/>
<path d="M179.538 72.9732L166.514 76.0592C165.557 76.2866 164.47 76.5675 163.752 76.8102L163.345 75.0158L165.193 74.4828L165.184 74.4369C163.842 74.1083 162.625 72.9847 162.217 71.1903C161.611 68.5342 163.35 65.968 166.623 65.1921C170.201 64.3208 172.923 66.0692 173.534 68.7483C173.916 70.4279 173.396 71.7483 172.642 72.4534L172.651 72.4993L179.085 70.9744L179.538 72.9732ZM169.665 73.2044C169.911 73.147 170.239 73.0439 170.469 72.9178C171.649 72.3273 172.425 70.9954 172.084 69.4954C171.614 67.4298 169.553 66.6253 167.171 67.189C164.989 67.7068 163.435 69.2221 163.927 71.3795C164.232 72.7191 165.379 73.7394 166.932 73.7547C167.215 73.7604 167.486 73.7184 167.8 73.6458L169.665 73.2044Z" fill="white"/>
<path d="M169.539 82.3576C166.825 82.5467 165.796 84.3754 165.9 86.4239C165.976 87.8914 166.272 88.7628 166.629 89.5137L165.209 89.9399C164.854 89.2348 164.426 88.0195 164.334 86.227C164.159 82.7588 166.29 80.5671 169.624 80.3913C172.956 80.2155 175.682 82.0785 175.849 85.3614C176.036 89.0398 172.911 90.1844 170.88 90.2915C170.47 90.3125 170.147 90.2838 169.942 90.2705L169.539 82.3576ZM171.281 88.2888C172.561 88.2449 174.519 87.5819 174.403 85.2754C174.297 83.2041 172.379 82.3939 170.98 82.3041L171.281 88.2888Z" fill="white"/>
<path d="M168.759 103.413C166.085 102.909 164.642 104.418 164.243 106.429C163.956 107.868 164.031 108.787 164.194 109.606L162.714 109.658C162.541 108.884 162.423 107.6 162.772 105.84C163.449 102.435 166.047 100.857 169.318 101.531C172.589 102.205 174.773 104.703 174.134 107.924C173.417 111.534 170.114 111.851 168.12 111.438C167.718 111.354 167.413 111.246 167.216 111.181L168.759 103.413ZM169 109.598C170.249 109.881 172.308 109.734 172.755 107.474C173.16 105.441 171.501 104.17 170.164 103.729L169 109.598Z" fill="white"/>
<path d="M158.504 120.446L167.354 124.057L169.077 119.662L160.227 116.052L160.965 114.167L169.815 117.777L170.392 116.306L171.814 116.887L171.237 118.358L171.576 118.496C173.019 119.084 174.135 119.942 174.621 121.092C174.977 121.94 174.999 122.954 174.54 124.123C174.303 124.729 173.89 125.214 173.594 125.47L172.367 124.519C172.605 124.29 172.893 123.93 173.064 123.496C173.65 122.002 172.558 121.081 170.945 120.424L170.499 120.242L168.776 124.637L169.264 124.836C170.707 125.424 171.888 126.307 172.367 127.532C172.766 128.524 172.669 129.588 172.33 130.453C172.058 131.145 171.689 131.648 171.396 131.955L170.047 131.129C170.293 130.878 170.544 130.553 170.766 129.989C171.393 128.388 170.162 127.383 168.592 126.743L168.039 126.517L167.047 129.049L165.625 128.468L166.608 125.957L157.758 122.348L158.504 120.446Z" fill="white"/>
<path d="M159.054 131.176C156.722 129.751 154.852 130.651 153.79 132.391C153.03 133.64 152.784 134.526 152.657 135.351L151.254 134.871C151.357 134.086 151.686 132.84 152.616 131.315C154.416 128.367 157.391 127.813 160.225 129.611C163.06 131.409 164.252 134.528 162.549 137.319C160.639 140.448 157.436 139.565 155.709 138.469C155.36 138.248 155.111 138.036 154.95 137.906L159.054 131.176ZM157.161 137.058C158.236 137.767 160.213 138.364 161.41 136.404C162.485 134.642 161.365 132.861 160.265 131.971L157.161 137.058Z" fill="white"/>
<path d="M143.234 144.671C143.373 144.082 143.863 142.941 144.838 141.799C147.031 139.232 150.163 139.078 152.712 141.342C155.281 143.624 155.613 147.069 153.241 149.847C152.459 150.761 151.545 151.372 150.98 151.609L150.109 150.216C150.631 150.031 151.315 149.618 152.036 148.775C153.701 146.824 153.188 144.514 151.448 142.968C149.516 141.254 147.247 141.463 145.807 143.151C145.056 144.03 144.786 144.81 144.601 145.418L143.234 144.671Z" fill="white"/>
<path d="M147.382 159.862L145.299 157.416L143.126 159.342L142.121 158.163L144.295 156.237L140.381 151.645C139.482 150.589 138.678 150.25 137.833 151.001C137.436 151.353 137.189 151.666 137.043 151.886L135.984 150.785C136.172 150.402 136.563 149.901 137.15 149.381C137.858 148.754 138.62 148.477 139.343 148.578C140.164 148.653 140.964 149.272 141.818 150.275L145.776 154.921L147.071 153.774L148.076 154.953L146.781 156.099L148.52 158.14L147.382 159.862Z" fill="white"/>
<path d="M132.723 153.182L139.063 162.429L137.414 163.604L131.074 154.357L132.723 153.182ZM139.006 166.336C138.594 165.776 138.692 165.024 139.347 164.557C139.928 164.143 140.655 164.306 141.046 164.88C141.453 165.472 141.337 166.239 140.738 166.665C140.121 167.106 139.413 166.929 139.006 166.336Z" fill="white"/>
<path d="M131.442 167.465L126.631 162.881C125.84 162.145 125.151 161.461 124.525 160.744L124.465 160.777C124.668 161.721 124.81 162.699 124.952 163.781L125.939 170.413L124.077 171.411L122.781 159.363L124.48 158.453L133.345 166.451L131.442 167.465Z" fill="white"/>
<path d="M116.613 167.924C115.712 165.306 113.711 164.78 111.802 165.426C110.436 165.889 109.691 166.412 109.076 166.962L108.297 165.679C108.868 165.141 109.902 164.399 111.574 163.833C114.806 162.737 117.441 164.253 118.494 167.482C119.545 170.711 118.507 173.889 115.45 174.925C112.023 176.085 110.11 173.318 109.47 171.35C109.341 170.953 109.282 170.627 109.239 170.421L116.613 167.924ZM111.47 171.212C111.853 172.458 112.999 174.206 115.146 173.481C117.076 172.827 117.333 170.727 117.044 169.324L111.47 171.212Z" fill="white"/>
<path d="M89.4023 168.363C89.9063 168.044 91.0412 167.585 92.5235 167.473C95.8508 167.223 98.1836 169.361 98.4338 172.8C98.6849 176.265 96.542 178.951 92.9411 179.222C91.7558 179.313 90.6857 179.089 90.1178 178.852L90.4589 177.237C90.9575 177.48 91.7288 177.679 92.8232 177.597C95.354 177.406 96.5834 175.395 96.4124 173.047C96.2234 170.443 94.4666 168.962 92.2778 169.128C91.1393 169.214 90.4085 169.573 89.8576 169.871L89.4023 168.363Z" fill="white"/>
<path d="M75.2496 172.733C75.6149 168.577 78.5955 167.024 81.2596 167.267C84.2421 167.54 86.346 169.978 86.0331 173.53C85.7034 177.293 83.0955 179.278 80.0456 179C76.8814 178.711 74.9479 176.169 75.2496 172.733ZM84.0023 173.416C84.2177 170.954 82.9925 168.969 81.0348 168.792C79.122 168.617 77.5277 170.32 77.3047 172.852C77.138 174.755 77.8593 177.256 80.2273 177.473C82.5935 177.687 83.815 175.552 84.0023 173.416Z" fill="white"/>
<path d="M69.7684 174.168C69.4611 175.292 69.2325 176.218 69.0527 177.134L67.3348 176.645L67.715 174.817L67.6701 174.805C66.8589 175.687 65.3507 176.347 63.5897 175.846C62.1153 175.425 60.0714 173.875 61.0906 170.149L62.8647 163.66L64.8018 164.21L63.0895 170.475C62.61 172.227 62.8497 173.866 64.6764 174.386C65.954 174.749 67.1961 174.111 67.8274 173.104C67.983 172.882 68.1198 172.557 68.2116 172.221L69.9988 165.686L71.9359 166.236L69.7684 174.168Z" fill="white"/>
<path d="M50.5141 174.087L51.8181 171.132L49.1914 169.926L49.821 168.503L52.4475 169.708L54.8961 164.161C55.46 162.886 55.4244 162 54.4034 161.532C53.9238 161.312 53.5416 161.212 53.285 161.17L53.8207 159.729C54.2404 159.743 54.8511 159.896 55.5593 160.221C56.4135 160.613 56.9794 161.205 57.1911 161.918C57.4683 162.709 57.2529 163.711 56.7171 164.922L54.2404 170.534L55.8028 171.252L55.1733 172.676L53.6109 171.958L52.5224 174.423L50.5141 174.087Z" fill="white"/>
<path d="M46.4302 164.404C45.7577 165.542 45.1993 166.532 44.7273 167.467L43.2191 166.54L44.2813 164.606L44.2027 164.558C43.0056 165.593 41.4843 165.772 40.3284 165.063C40.1336 164.942 40.008 164.84 39.875 164.702L40.8548 163.045C41.0066 163.194 41.1715 163.322 41.4075 163.465C42.6214 164.21 44.0378 163.802 45.0513 162.629C45.2312 162.413 45.4373 162.156 45.6134 161.858L48.6577 156.707L50.3607 157.754L46.4302 164.404Z" fill="white"/>
<path d="M38.1089 148.973L37.3557 150.181L37.4082 150.225C38.4349 149.933 39.8475 150.08 41.0727 151.092C42.8131 152.531 42.7082 154.515 41.7003 155.782C40.016 157.901 37.249 157.534 33.9424 154.771L33.7981 154.953C33.2229 155.677 32.3818 157.143 34.1409 158.595C34.9409 159.256 35.9769 159.691 36.8968 159.791L36.4172 161.134C35.3324 161.018 34.0585 160.475 32.9757 159.58C30.3472 157.408 31.1622 155.052 32.556 153.294L35.1601 150.015C35.7652 149.255 36.3178 148.483 36.6869 147.796L38.1089 148.973ZM34.7873 153.638C36.464 155.082 38.6428 156.374 39.9954 154.671C40.816 153.64 40.5294 152.592 39.7294 151.932C38.611 151.006 37.324 151.144 36.4865 151.681C36.3029 151.799 36.1249 151.953 35.9956 152.115L34.7873 153.638Z" fill="white"/>
<path d="M27.8741 138.902C28.4305 139.112 29.4815 139.746 30.4763 140.872C32.7094 143.4 32.4827 146.591 29.9686 148.899C27.4395 151.225 24.0448 151.143 21.6261 148.406C20.83 147.506 20.3485 146.507 20.1836 145.903L21.6449 145.188C21.7629 145.739 22.0814 146.482 22.8158 147.313C24.515 149.236 26.825 148.994 28.5392 147.418C30.4407 145.67 30.5119 143.346 29.0431 141.684C28.2787 140.819 27.5519 140.449 26.9824 140.187L27.8741 138.902Z" fill="white"/>
<path d="M12.5859 141.259L15.2182 139.446L13.6051 137.011L14.8734 136.137L16.4864 138.571L21.4286 135.164C22.5658 134.381 22.991 133.608 22.3634 132.663C22.0693 132.217 21.7939 131.929 21.5972 131.755L22.7962 130.816C23.1465 131.054 23.5868 131.511 24.0214 132.168C24.546 132.959 24.7221 133.767 24.5367 134.486C24.3643 135.307 23.6655 136.043 22.5845 136.786L17.5843 140.231L18.5435 141.68L17.2752 142.555L16.316 141.106L14.1185 142.62L12.5859 141.259Z" fill="white"/>
<path d="M7.301 131.998C7.89489 131.648 8.61616 131.839 8.99085 132.559C9.32434 133.197 9.07513 133.912 8.47004 134.241C7.84431 134.581 7.11366 134.369 6.76895 133.71C6.41486 133.031 6.67528 132.337 7.301 131.998ZM20.8648 127.23L11.0966 132.527L10.1524 130.716L19.9205 125.418L20.8648 127.23Z" fill="white"/>
<path d="M10.1314 123.826C9.05792 124.227 8.18487 124.576 7.35118 124.962L6.73857 123.253L8.41717 122.504L8.40218 122.46C7.22566 122.304 5.82058 121.436 5.19297 119.684C4.66653 118.216 4.70962 115.619 8.27479 114.292L14.4796 111.979L15.1691 113.905L9.17969 116.138C7.5048 116.762 6.33764 117.917 6.98773 119.734C7.44298 121.005 8.67571 121.662 9.8447 121.597C10.1126 121.597 10.4499 121.52 10.7721 121.4L17.02 119.072L17.7094 120.998L10.1314 123.826Z" fill="white"/>
<path d="M0.828125 99.7025C1.62434 99.6139 2.51048 99.5088 3.84062 99.2841L10.1747 98.2041C12.6776 97.7783 14.2926 98.0222 15.4167 98.9414C16.5857 99.8533 17.1571 101.363 17.3875 102.765C17.6067 104.099 17.5318 105.624 17.0915 106.621L15.499 106.373C15.8288 105.561 16.0461 104.341 15.8213 102.962C15.4822 100.892 14.1745 99.5545 11.4244 100.023L10.2066 100.23L10.2141 100.275C11.3307 100.722 12.3367 101.781 12.6196 103.504C13.0711 106.264 11.0965 108.633 8.07461 109.148C4.3783 109.778 1.87725 107.675 1.45947 105.122C1.14286 103.189 1.96156 101.963 2.784 101.326L2.77651 101.281L1.11476 101.47L0.828125 99.7025ZM5.47614 101.06C5.13893 101.118 4.84854 101.191 4.59375 101.33C3.5034 101.894 2.7203 103.044 2.96011 104.516C3.27672 106.448 5.10333 107.554 7.62686 107.124C9.76819 106.759 11.3681 105.353 11.0103 103.168C10.808 101.927 9.85621 100.931 8.52237 100.709C8.16454 100.652 7.77485 100.671 7.43576 100.729L5.47614 101.06Z" fill="white"/>
<path d="M9.42035 86.4942C9.85496 85.921 10.3477 84.8853 10.4264 83.8629C10.5426 82.3762 9.86621 81.6196 8.95571 81.547C7.99838 81.4706 7.42886 82.0094 6.76566 83.4751C5.902 85.4394 4.73484 86.305 3.41407 86.198C1.63616 86.0547 0.29103 84.4725 0.478374 82.0553C0.566426 80.9164 0.963601 79.9438 1.37576 79.3438L2.79395 79.9725C2.48671 80.3928 2.05956 81.1763 1.97713 82.2215C1.88345 83.4292 2.5148 84.1592 3.33538 84.226C4.24775 84.2986 4.70862 83.6584 5.36994 82.2387C6.25046 80.3451 7.2846 79.4221 8.92574 79.5558C10.8629 79.7125 12.1106 81.3559 11.9045 84.0291C11.809 85.2617 11.4249 86.3757 10.9079 87.1286L9.42035 86.4942Z" fill="white"/>
<path d="M7.82606 73.4029C10.4826 73.9953 11.972 72.5334 12.4348 70.5366C12.7663 69.1073 12.7214 68.1862 12.5827 67.3627L14.0628 67.3608C14.2107 68.1385 14.2895 69.4264 13.8847 71.1748C13.1017 74.5551 10.4545 76.0495 7.20783 75.266C3.96115 74.4825 1.85352 71.9162 2.59353 68.7174C3.42346 65.1327 6.73571 64.9244 8.71595 65.4021C9.11691 65.4976 9.41661 65.618 9.61146 65.6907L7.82606 73.4029ZM7.77923 67.2117C6.539 66.8887 4.47822 66.9671 3.95739 69.2124C3.48903 71.2321 5.10957 72.5564 6.42847 73.0417L7.77923 67.2117Z" fill="white"/>
<path d="M8.96168 60.1702C7.74956 59.6829 6.70043 59.2855 5.71875 58.9645L6.36508 57.2943L8.41088 58.0416L8.44461 57.9555C7.24748 56.9217 6.82033 55.4217 7.31492 54.1433C7.39923 53.9274 7.47978 53.7841 7.58845 53.6274L9.35323 54.3383C9.23524 54.516 9.13777 54.7032 9.0385 54.9631C8.51767 56.3083 9.14902 57.6632 10.451 58.4886C10.689 58.6339 10.97 58.7982 11.2885 58.9262L16.7739 61.1333L16.0433 63.0193L8.96168 60.1702Z" fill="white"/>
<path d="M10.589 47.7632L17.0579 49.0167C18.1109 49.2078 19.0514 49.4103 19.9581 49.6759L19.9918 49.6148C19.3268 48.9269 18.6935 48.1778 18.0059 47.3409L13.697 42.2714L14.748 40.4141L22.1556 49.8938L21.1945 51.5906L9.51172 49.6626L10.589 47.7632Z" fill="white"/>
<path d="M16.5484 32.7074C17.1086 33.1124 17.2397 33.8595 16.7564 34.5093C16.3274 35.0845 15.5855 35.1533 15.0403 34.7309C14.4763 34.2934 14.3583 33.527 14.8005 32.9347C15.2576 32.3213 15.9845 32.2697 16.5484 32.7074ZM26.4683 43.2801L17.6649 36.4469L18.8827 34.815L27.686 41.6482L26.4683 43.2801Z" fill="white"/>
<path d="M35.9851 31.7005C35.8145 32.2795 35.2638 33.3916 34.2277 34.4769C31.8991 36.9152 28.7629 36.8923 26.3406 34.4846C23.9013 32.0616 23.7589 28.6011 26.2788 25.9622C27.1086 25.0946 28.0547 24.5366 28.6337 24.3303L29.428 25.7711C28.896 25.9258 28.1896 26.2984 27.4253 27.101C25.6549 28.9546 26.0408 31.2897 27.6951 32.933C29.5292 34.7541 31.8073 34.6737 33.3379 33.0706C34.1359 32.2355 34.4489 31.4731 34.6661 30.8769L35.9851 31.7005Z" fill="white"/>
<path d="M36.8642 24.6437C38.5277 26.8394 40.5885 26.696 42.2016 25.4693C43.3556 24.5903 43.9008 23.8565 44.3148 23.1342L45.4502 24.103C45.0736 24.7967 44.3205 25.8342 42.9116 26.9082C40.182 28.9852 37.2126 28.3948 35.2173 25.6661C33.2221 22.9374 33.2259 19.5915 35.8094 17.6252C38.7038 15.422 41.3735 17.4341 42.5894 19.0965C42.8348 19.4329 42.9903 19.7233 43.0952 19.9049L36.8642 24.6437ZM40.729 19.8704C39.9816 18.8099 38.3535 17.5201 36.5401 18.8997C34.9102 20.1399 35.3167 22.217 36.021 23.4534L40.729 19.8704Z" fill="white"/>
<path d="M48.4524 20.3402C49.1587 20.4052 50.2809 20.2733 51.1689 19.7918C52.4616 19.0924 52.7239 18.1045 52.2949 17.2809C51.8452 16.4172 51.094 16.2166 49.524 16.4325C47.4351 16.7459 46.0938 16.2051 45.4718 15.0127C44.6362 13.4076 45.2208 11.3992 47.3208 10.2623C48.31 9.72725 49.3273 9.54387 50.0449 9.57822L50.2865 11.1375C49.7751 11.0973 48.8965 11.1509 47.9878 11.6438C46.9387 12.2133 46.6746 13.1477 47.0605 13.8891C47.4895 14.7127 48.2669 14.7662 49.7976 14.5713C51.8359 14.3114 53.1548 14.705 53.9267 16.1879C54.8371 17.9383 54.1496 19.895 51.8284 21.1523C50.7587 21.7313 49.6309 22.0007 48.7297 21.9606L48.4524 20.3402Z" fill="white"/>
</g>
<defs>
<clipPath id="clip0_18828_90">
<rect width="180" height="180" fill="white"/>
</clipPath>
</defs>
</svg>
