<svg width="41" height="40" viewBox="0 0 41 40" fill="none" xmlns="http://www.w3.org/2000/svg">
<path d="M31.4416 12.5312C31.4415 12.4275 31.4285 12.3242 31.4028 12.2238C31.0007 10.6591 30.2651 9.19989 29.2466 7.94596C28.228 6.69203 26.9505 5.67304 25.5016 4.95875V7.5C25.5016 7.83152 25.3699 8.14946 25.1354 8.38388C24.901 8.6183 24.5831 8.75 24.2516 8.75C23.92 8.75 23.6021 8.6183 23.3677 8.38388C23.1333 8.14946 23.0016 7.83152 23.0016 7.5V3.75C23.0016 3.41848 22.8699 3.10054 22.6354 2.86612C22.401 2.6317 22.0831 2.5 21.7516 2.5H19.2516C18.92 2.5 18.6021 2.6317 18.3677 2.86612C18.1333 3.10054 18.0016 3.41848 18.0016 3.75V7.5C18.0016 7.83152 17.8699 8.14946 17.6354 8.38388C17.401 8.6183 17.0831 8.75 16.7516 8.75C16.42 8.75 16.1021 8.6183 15.8677 8.38388C15.6333 8.14946 15.5016 7.83152 15.5016 7.5V4.95875C14.0524 5.6731 12.7748 6.69227 11.7562 7.94643C10.7376 9.2006 10.0022 10.6601 9.60031 12.225C9.57511 12.3254 9.565 12.4291 9.57031 12.5325C9.10665 12.6091 8.68878 12.8573 8.39974 13.2278C8.11069 13.5983 7.97164 14.064 8.01023 14.5324C8.04881 15.0007 8.2622 15.4374 8.60798 15.7556C8.95376 16.0739 9.40662 16.2504 9.87656 16.25H31.1266C31.5987 16.2546 32.055 16.0807 32.4043 15.7629C32.7535 15.4452 32.9697 15.0072 33.0095 14.5368C33.0494 14.0663 32.9099 13.5982 32.6191 13.2263C32.3283 12.8544 31.9077 12.6061 31.4416 12.5312ZM29.2516 18.75H11.7516V20C11.7516 22.3875 12.7141 24.55 14.2678 26.13C14.2641 26.1712 14.2516 26.2087 14.2516 26.25V28.355L20.4703 31.1175L26.7516 27.9787V26.25C26.7516 26.2087 26.7391 26.1712 26.7353 26.13C28.3481 24.4974 29.2522 22.2949 29.2516 20V18.75Z" fill="black"/>
<path d="M13.0002 37.5H28.0002V30.1475L21.0589 33.6188C20.894 33.7011 20.7128 33.746 20.5285 33.7501C20.3441 33.7542 20.1612 33.7174 19.9927 33.6425L13.0002 30.5338V37.5ZM10.5002 30.14C7.51831 31.0508 4.9429 32.9642 3.21019 35.5563C3.08459 35.7445 3.01245 35.9633 3.00147 36.1894C2.99049 36.4154 3.04108 36.6402 3.14784 36.8397C3.25461 37.0393 3.41354 37.2061 3.60768 37.3224C3.80182 37.4386 4.02388 37.5 4.25019 37.5H10.5002V30.14ZM37.7902 35.5563C36.0575 32.9642 33.4821 31.0508 30.5002 30.14V37.5H36.7502C36.9765 37.5 37.1986 37.4386 37.3927 37.3224C37.5868 37.2061 37.7458 37.0393 37.8525 36.8397C37.9593 36.6402 38.0099 36.4154 37.9989 36.1894C37.9879 35.9633 37.9158 35.7445 37.7902 35.5563Z" fill="black"/>
</svg>
