<svg width="36" height="35" viewBox="0 0 36 35" fill="none" xmlns="http://www.w3.org/2000/svg">
<g clip-path="url(#clip0_18834_155)">
<path d="M34.6092 13.6918L32.0575 13.1815C31.7772 12.2522 31.405 11.3532 30.9463 10.4979L32.3896 8.33301C32.5211 8.13579 32.5802 7.89908 32.5568 7.66318C32.5335 7.42728 32.4291 7.20677 32.2614 7.03917L28.3945 3.17215C28.2269 3.00455 28.0064 2.90019 27.7705 2.87682C27.5346 2.85345 27.2979 2.91252 27.1007 3.04397L24.9356 4.48725C24.0803 4.02858 23.1813 3.65637 22.2521 3.37613L21.7418 0.824277C21.6953 0.591841 21.5697 0.382688 21.3864 0.232406C21.2031 0.082124 20.9734 -2.54843e-06 20.7363 2.65906e-10H15.2676C15.0305 -5.39587e-06 14.8008 0.0821187 14.6175 0.2324C14.4342 0.382681 14.3086 0.591835 14.2621 0.824277L13.7518 3.37613C12.8225 3.6564 11.9236 4.02861 11.0682 4.48725L8.90318 3.04397C8.70594 2.91252 8.46924 2.85345 8.23336 2.87682C7.99747 2.90019 7.77697 3.00455 7.60935 3.17215L3.74239 7.03917C3.57476 7.20677 3.47038 7.42729 3.44702 7.66318C3.42366 7.89908 3.48277 8.13578 3.61429 8.33301L5.05756 10.4979C4.59887 11.3532 4.22663 12.2522 3.94638 13.1815L1.39459 13.6918C1.16215 13.7383 0.952993 13.8638 0.802712 14.0472C0.652431 14.2305 0.570307 14.4602 0.570313 14.6973V20.166C0.570313 20.6548 0.915322 21.0757 1.39466 21.1714L3.94645 21.6818C4.22668 22.611 4.59892 23.51 5.05763 24.3653L3.61436 26.5303C3.48285 26.7275 3.42375 26.9642 3.44711 27.2001C3.47047 27.436 3.57484 27.6565 3.74246 27.8241L7.60941 31.6911C7.77702 31.8587 7.99753 31.9631 8.23342 31.9864C8.46931 32.0098 8.70601 31.9507 8.90325 31.8192L11.0239 30.4056V23.9685C9.418 22.2592 8.43164 19.9626 8.43164 17.4316C8.43164 12.1461 12.7164 7.86133 18.002 7.86133C23.2875 7.86133 27.5723 12.1461 27.5723 17.4316C27.5723 19.9626 26.5859 22.2592 24.98 23.9685V30.4056L27.1007 31.8192C27.2689 31.9316 27.4667 31.9916 27.6691 31.9915C27.9337 31.9915 28.1963 31.8893 28.3944 31.6911L32.2614 27.8242C32.429 27.6566 32.5334 27.4361 32.5567 27.2002C32.5801 26.9643 32.521 26.7276 32.3895 26.5303L30.9462 24.3654C31.4049 23.5101 31.7771 22.6111 32.0574 21.6819L34.6092 21.1715C34.8416 21.125 35.0508 20.9995 35.2011 20.8161C35.3514 20.6328 35.4336 20.4031 35.4336 20.166V14.6973C35.4336 14.4602 35.3515 14.2305 35.2012 14.0472C35.0509 13.8638 34.8417 13.7382 34.6092 13.6918Z" fill="black"/>
<path d="M21.2503 11.8132C20.7343 11.5143 20.0795 11.8315 19.9943 12.4217L19.3691 16.748H16.6348L16.0097 12.4217C15.9244 11.8315 15.2697 11.5143 14.7537 11.8132C12.7515 12.9729 11.5078 15.1259 11.5078 17.4316C11.5078 19.9303 12.9071 22.1655 15.1596 23.2649L15.2676 23.3176V33.9746C15.2676 34.5409 15.7267 35 16.293 35H19.7109C20.2772 35 20.7363 34.5409 20.7363 33.9746V23.3176L20.8443 23.2649C23.0968 22.1655 24.4961 19.9303 24.4961 17.4316C24.4961 15.1259 23.2524 12.9729 21.2503 11.8132Z" fill="black"/>
</g>
<defs>
<clipPath id="clip0_18834_155">
<rect width="35" height="35" fill="white" transform="translate(0.5)"/>
</clipPath>
</defs>
</svg>
