<svg width="41" height="40" viewBox="0 0 41 40" fill="none" xmlns="http://www.w3.org/2000/svg">
<g clip-path="url(#clip0_18834_183)">
<path d="M2.53492 9.61323C1.41102 9.61323 0.5 10.5242 0.5 11.6481V13.3563C0.5 14.4801 1.41102 15.3911 2.53492 15.3911H3.95031V9.61323H2.53492ZM28.4266 17.7183H25.408C24.7609 17.7183 24.2362 17.1936 24.2362 16.5464L24.2379 7.2437C24.2379 6.00495 23.2337 5.00073 21.9949 5.00073C20.7562 5.00073 19.752 6.00495 19.752 7.2437C19.752 6.00495 18.7477 5.00073 17.509 5.00073C16.2702 5.00073 15.266 6.00495 15.266 7.2437V8.09776C15.266 6.85901 14.2618 5.85479 13.023 5.85479C11.7843 5.85479 10.7801 6.85901 10.7801 8.09776V8.95183C10.7801 7.71308 9.77586 6.70886 8.53711 6.70886C7.29836 6.70886 6.29414 7.71308 6.29414 8.95183V19.0364C6.29414 20.7779 6.78633 22.4841 7.71391 23.9581L8.38297 25.0214V27.1621L8.38961 27.1619H24.5851V25.4377L26.901 23.0389C27.8797 22.0251 28.4266 20.6711 28.4266 19.262V17.7183H28.4266Z" fill="black"/>
<path d="M26.5811 9.61315H30.138V15.3746H26.5811V9.61315ZM26.3594 30.6774C26.3594 30.0302 25.8347 29.5055 25.1875 29.5055H8.39062C7.74344 29.5055 7.21875 30.0302 7.21875 30.6774V36.4124C7.21875 37.0596 7.74344 37.5842 8.39062 37.5842H25.1875C25.8347 37.5842 26.3594 37.0596 26.3594 36.4124V30.6774ZM31.1801 3.60823C30.9076 3.82401 30.8902 4.23237 31.136 4.47815L33.1901 6.53221C33.3572 6.69936 33.4567 6.92242 33.4693 7.15848C33.4819 7.39453 33.4067 7.6269 33.2583 7.81088L32.6941 8.51018C32.5567 8.6805 32.4818 8.89274 32.4818 9.11159V16.1056C32.4818 16.3021 32.5423 16.4939 32.6549 16.6548L33.4686 17.8173C33.5811 17.978 33.6415 18.1693 33.6417 18.3654C33.6419 18.5615 33.5819 18.753 33.4698 18.9139L32.6537 20.0858C32.5418 20.2464 32.4818 20.4375 32.4818 20.6332V22.3355C32.4818 22.8645 32.9106 23.2933 33.4395 23.2933H39.5434C40.0724 23.2933 40.5012 22.8645 40.5012 22.3356V20.6196C40.5012 20.4324 40.4463 20.2493 40.3434 20.093L39.5538 18.8931C39.4507 18.7365 39.3959 18.5531 39.3961 18.3656C39.3963 18.178 39.4516 17.9947 39.555 17.8383L40.3423 16.6479C40.4459 16.4912 40.5012 16.3075 40.5012 16.1196V6.40252C40.5012 6.14854 40.4002 5.90487 40.2206 5.72526L38.5342 4.03885C37.452 2.95659 36.0339 2.41557 34.6155 2.41565C33.3998 2.41573 32.1839 2.81323 31.1801 3.60823Z" fill="black"/>
</g>
<defs>
<clipPath id="clip0_18834_183">
<rect width="40" height="40" fill="white" transform="translate(0.5)"/>
</clipPath>
</defs>
</svg>
