<svg width="22" height="22" viewBox="0 0 22 22" fill="none" xmlns="http://www.w3.org/2000/svg">
<path d="M21.7081 10.2926C21.801 10.3854 21.8748 10.4957 21.9251 10.6171C21.9754 10.7385 22.0013 10.8687 22.0013 11.0001C22.0013 11.1315 21.9754 11.2616 21.9251 11.383C21.8748 11.5044 21.801 11.6147 21.7081 11.7076L11.7081 21.7076C11.6152 21.8005 11.5049 21.8743 11.3835 21.9246C11.2621 21.975 11.132 22.0009 11.0006 22.0009C10.8691 22.0009 10.739 21.975 10.6176 21.9246C10.4962 21.8743 10.3859 21.8005 10.2931 21.7076L0.293056 11.7076C0.105415 11.5199 0 11.2654 0 11.0001C0 10.7347 0.105415 10.4802 0.293056 10.2926C0.480697 10.1049 0.735192 9.99951 1.00056 9.99951C1.26592 9.99951 1.52042 10.1049 1.70806 10.2926L11.0006 19.5863L20.2931 10.2926C20.3859 10.1996 20.4962 10.1258 20.6176 10.0755C20.739 10.0252 20.8691 9.99928 21.0006 9.99928C21.132 9.99928 21.2621 10.0252 21.3835 10.0755C21.5049 10.1258 21.6152 10.1996 21.7081 10.2926ZM10.2931 11.7076C10.3859 11.8005 10.4962 11.8743 10.6176 11.9246C10.739 11.975 10.8691 12.0009 11.0006 12.0009C11.132 12.0009 11.2621 11.975 11.3835 11.9246C11.5049 11.8743 11.6152 11.8005 11.7081 11.7076L21.7081 1.70757C21.8957 1.51993 22.0011 1.26543 22.0011 1.00007C22.0011 0.734704 21.8957 0.480208 21.7081 0.292568C21.5204 0.104927 21.2659 -0.000488276 21.0006 -0.000488281C20.7352 -0.000488286 20.4807 0.104927 20.2931 0.292568L11.0006 9.58632L1.70806 0.292568C1.52042 0.104927 1.26592 -0.000488283 1.00056 -0.000488281C0.735192 -0.000488279 0.480697 0.104927 0.293056 0.292568C0.105415 0.480208 1.97712e-09 0.734704 0 1.00007C-1.97712e-09 1.26543 0.105415 1.51993 0.293056 1.70757L10.2931 11.7076Z" fill="#FF761B"/>
</svg>
