<svg width="148" height="40" viewBox="0 0 148 40" fill="none" xmlns="http://www.w3.org/2000/svg">
<g clip-path="url(#clip0_19115_302)">
<path d="M55.5318 7.24023H60.7515L55.0634 31.7205H45.8834L40.1953 7.24023H45.4154L49.6637 27.4004H51.2835L55.5318 7.24023Z" fill="#FF761B"/>
<path d="M65.7272 24.7712C65.7511 25.8752 66.0391 26.6792 66.5911 27.1832C67.167 27.6633 67.983 27.9032 69.0392 27.9032C71.2711 27.9032 73.2632 27.8312 75.0152 27.6872L76.0232 27.5793L76.0953 31.1434C73.3353 31.8153 70.839 32.1515 68.6071 32.1515C65.8953 32.1515 63.9271 31.4314 62.7032 29.9913C61.4789 28.5513 60.8672 26.2112 60.8672 22.9712C60.8672 16.5151 63.5192 13.2871 68.823 13.2871C74.055 13.2871 76.6712 15.9991 76.6712 21.4232L76.3112 24.7712H65.7272ZM71.9191 21.0992C71.9191 19.6592 71.6913 18.6632 71.2353 18.1112C70.7792 17.5351 69.9752 17.2472 68.823 17.2472C67.6951 17.2472 66.891 17.5472 66.4111 18.1472C65.9551 18.7232 65.7153 19.7072 65.691 21.0992H71.9191Z" fill="#FF761B"/>
<path d="M79.3984 31.7194V13.7191H84.1864V15.6271C86.2024 14.4271 88.1225 13.6471 89.9465 13.2871V18.1472C88.0022 18.5552 86.3343 18.9752 84.9423 19.4072L84.2223 19.6592V31.7194H79.3984Z" fill="#FF761B"/>
<path d="M102.044 17.8239H97.6162V25.204C97.6162 25.924 97.6282 26.44 97.6524 26.752C97.7002 27.04 97.8324 27.292 98.0483 27.508C98.2884 27.724 98.6481 27.832 99.1284 27.832L101.864 27.76L102.08 31.6122C100.472 31.9722 99.2483 32.1522 98.4083 32.1522C96.2482 32.1522 94.7722 31.6719 93.9804 30.7121C93.1883 29.728 92.7924 27.928 92.7924 25.312V17.8239H90.668V13.7199H92.7924V8.71582H97.6162V13.7199H102.044V17.8239Z" fill="#FF761B"/>
<path d="M104.465 31.7198V13.7196H109.289V31.7198H104.465ZM104.465 11.4156V6.51953H109.289V11.4156H104.465Z" fill="#FF761B"/>
<path d="M129.338 33.9515C129.338 36.0157 128.546 37.5395 126.962 38.5236C125.378 39.5077 123.23 39.9996 120.518 39.9996C117.83 39.9996 115.754 39.6396 114.29 38.9195C112.849 38.1994 112.129 36.8915 112.129 34.9957C112.129 33.4835 112.994 32.0554 114.722 30.7116C113.834 30.1114 113.39 29.1994 113.39 27.9755C113.39 27.4955 113.75 26.7035 114.47 25.5995L114.793 25.0955C113.162 23.9195 112.346 22.1915 112.346 19.9114C112.346 17.6074 113.03 15.9394 114.398 14.9074C115.79 13.8754 117.626 13.3594 119.906 13.3594C120.937 13.3594 121.958 13.4794 122.966 13.7194L123.542 13.8274L129.338 13.6474V17.4994L126.638 17.2834C127.166 18.0994 127.43 18.9154 127.43 19.7314C127.43 22.1314 126.818 23.7875 125.594 24.6995C124.37 25.6115 122.45 26.0675 119.834 26.0675C119.282 26.0675 118.79 26.0195 118.358 25.9235C118.118 26.5475 117.997 27.0635 117.997 27.4715C117.997 27.8555 118.202 28.1195 118.61 28.2635C119.017 28.4075 119.978 28.4915 121.489 28.5155C124.514 28.5395 126.578 28.9475 127.682 29.7394C128.786 30.5077 129.338 31.9116 129.338 33.9515ZM116.882 34.4916C116.882 35.5235 118.142 36.0396 120.662 36.0396C123.206 36.0396 124.478 35.4394 124.478 34.2395C124.478 33.5915 124.262 33.1717 123.83 32.9797C123.398 32.8117 122.486 32.7157 121.094 32.6914L117.854 32.4397C117.206 33.0877 116.882 33.7715 116.882 34.4916ZM117.169 19.7674C117.169 21.5195 118.082 22.3954 119.906 22.3954C121.754 22.3954 122.678 21.5195 122.678 19.7674C122.678 17.9914 121.754 17.1034 119.906 17.1034C118.082 17.1034 117.169 17.9914 117.169 19.7674Z" fill="#FF761B"/>
<path d="M132.509 15.7711C133.781 14.1151 135.905 13.2871 138.882 13.2871C141.857 13.2871 143.982 14.1151 145.253 15.7711C146.525 17.4032 147.161 19.7072 147.161 22.6832C147.161 28.9952 144.401 32.1515 138.882 32.1515C133.362 32.1515 130.602 28.9952 130.602 22.6832C130.602 19.7072 131.238 17.4032 132.509 15.7711ZM136.218 26.7512C136.721 27.6152 137.609 28.0473 138.882 28.0473C140.154 28.0473 141.029 27.6152 141.51 26.7512C142.013 25.8872 142.266 24.5312 142.266 22.6832C142.266 20.8352 142.013 19.4912 141.51 18.6512C141.029 17.8111 140.154 17.3912 138.882 17.3912C137.609 17.3912 136.721 17.8111 136.218 18.6512C135.738 19.4912 135.497 20.8352 135.497 22.6832C135.497 24.5312 135.738 25.8872 136.218 26.7512Z" fill="#FF761B"/>
<path fill-rule="evenodd" clip-rule="evenodd" d="M21.8964 5.86664C19.7406 4.97366 17.4083 4.5886 15.0799 4.7412C12.7515 4.89383 10.4894 5.58003 8.46858 6.74672L6.42967 7.92388L4.07535 3.84609L6.11426 2.66893C8.76056 1.14112 11.7228 0.242488 14.7719 0.0426604C17.8211 -0.157203 20.8753 0.347056 23.6984 1.51639C26.5214 2.68577 29.0376 4.48885 31.0524 6.78624C33.067 9.08359 34.5263 11.8137 35.3174 14.7652C36.1081 17.7167 36.2095 20.8107 35.6133 23.8076C35.0171 26.8046 33.7396 29.6243 31.8793 32.0485C30.0191 34.4727 27.6263 36.4366 24.8858 37.788C22.1452 39.1393 18.6104 39.8424 16.0749 39.8424C13.5393 39.8424 12.0588 39.4621 10.1145 38.6569C8.22493 37.8742 6.50801 36.7271 5.06174 35.2808C3.61549 33.8345 2.46829 32.1173 1.68556 30.2277C0.902879 28.3382 0.5 26.3129 0.5 24.2676C0.5 22.2223 0.902879 20.197 1.68556 18.3074C2.46829 16.4178 3.61549 14.7009 5.06174 13.2546C6.50801 11.8084 8.22493 10.6611 10.1145 9.87844C12.0042 9.09572 14.0295 8.69288 16.0747 8.69288C18.1201 8.69288 20.1453 9.09572 22.0349 9.87844C23.9246 10.6611 25.6415 11.8084 27.0878 13.2546C28.534 14.7009 29.6811 16.4178 30.4639 18.3074C30.8007 19.1202 31.0669 19.9581 31.2614 20.812C31.3563 19.1911 31.1915 17.5609 30.7692 15.9839C30.165 13.73 29.0508 11.6452 27.5123 9.89086C25.9737 8.1365 24.0522 6.75958 21.8964 5.86664ZM6.671 29.7119C6.93806 24.6499 11.1272 20.6276 16.2558 20.6276C21.1862 20.6276 25.2484 24.345 25.7923 29.1298C25.9076 28.8994 26.0148 28.6646 26.1137 28.4259C26.6598 27.1076 26.9408 25.6946 26.9408 24.2676C26.9408 22.8407 26.6598 21.4277 26.1137 20.1094C25.5677 18.791 24.7673 17.5932 23.7582 16.5841C22.7493 15.5751 21.5514 14.7747 20.233 14.2287C18.9147 13.6826 17.5017 13.4015 16.0747 13.4015C14.6478 13.4015 13.2348 13.6826 11.9165 14.2287C10.5982 14.7747 9.40028 15.5751 8.39125 16.5841C7.38226 17.5932 6.58187 18.791 6.03577 20.1094C5.48971 21.4277 5.20864 22.8407 5.20864 24.2676C5.20864 25.6946 5.48971 27.1076 6.03577 28.4259C6.21937 28.8691 6.43166 29.2986 6.671 29.7119ZM21.1456 30.2259C21.1456 32.9265 18.9564 35.1156 16.2558 35.1156C13.5553 35.1156 11.3661 32.9265 11.3661 30.2259C11.3661 27.5254 13.5553 25.3362 16.2558 25.3362C18.9564 25.3362 21.1456 27.5254 21.1456 30.2259Z" fill="#FF761B"/>
</g>
<defs>
<clipPath id="clip0_19115_302">
<rect width="147" height="40" fill="white" transform="translate(0.5)"/>
</clipPath>
</defs>
</svg>
