<svg width="195" height="40" viewBox="0 0 195 40" fill="none" xmlns="http://www.w3.org/2000/svg">
<g clip-path="url(#clip0_19115_311)">
<path d="M157.816 1.83984V37.7019H163.065V1.83984H157.816Z" fill="#FF761B"/>
<path fill-rule="evenodd" clip-rule="evenodd" d="M110.36 38.28C108.288 38.28 106.558 37.7977 105.169 36.8326C105.017 36.7274 104.869 36.6175 104.725 36.5034V37.7011H100.094V2.41797H105.381V17.5332C106.678 16.6993 108.247 16.2822 110.089 16.2822C112.083 16.2822 113.82 16.7582 115.299 17.7102C116.779 18.6621 117.924 19.9679 118.734 21.6273C119.557 23.274 119.969 25.1586 119.969 27.2809C119.969 29.3651 119.564 31.2368 118.753 32.8965C117.956 34.5559 116.836 35.868 115.396 36.8326C113.955 37.7977 112.276 38.28 110.36 38.28ZM105.188 23.9623C104.879 24.914 104.725 26.0202 104.725 27.2809C104.725 28.5416 104.879 29.6483 105.188 30.6C105.497 31.5522 105.999 32.2915 106.693 32.8193C107.4 33.3467 108.34 33.6101 109.51 33.6101C110.642 33.6101 111.569 33.3274 112.289 32.7614C113.01 32.1954 113.543 31.4363 113.891 30.4841C114.238 29.5195 114.411 28.452 114.411 27.2809C114.411 26.1232 114.232 25.0685 113.871 24.1168C113.511 23.1517 112.952 22.3863 112.193 21.8203C111.446 21.2414 110.488 20.952 109.317 20.952C108.224 20.952 107.336 21.2157 106.655 21.7431C105.986 22.2705 105.497 23.0101 105.188 23.9623Z" fill="#FF761B"/>
<path d="M91.7956 25.3898V37.7011H97.0439V24.0008C97.0439 21.7237 96.4328 19.8842 95.2107 18.4819C94.0016 17.0669 92.2071 16.3594 89.8273 16.3594C88.4379 16.3594 87.1707 16.6681 86.0259 17.2856C84.9776 17.8454 84.1225 18.6148 83.4604 19.5938C82.9666 18.7054 82.2843 17.9745 81.414 17.4014C80.3721 16.7067 79.0342 16.3594 77.4006 16.3594C75.9726 16.3594 74.6797 16.6745 73.522 17.3049C72.6471 17.7866 71.9073 18.3997 71.3027 19.1443V16.8611H66.6719V37.7011H71.9588V25.0813C71.9588 23.885 72.2871 22.9137 72.9432 22.1676C73.6121 21.4086 74.4931 21.0291 75.5864 21.0291C76.7317 21.0291 77.6255 21.415 78.2687 22.1869C78.9248 22.9459 79.2531 24.0137 79.2531 25.3898V37.7011H84.5013V25.0813C84.5013 24.2836 84.6494 23.5825 84.9455 22.978C85.254 22.3605 85.6783 21.8845 86.219 21.5501C86.7593 21.2027 87.396 21.0291 88.1294 21.0291C89.2742 21.0291 90.168 21.415 90.8112 22.1869C91.4673 22.9459 91.7956 24.0137 91.7956 25.3898Z" fill="#FF761B"/>
<path d="M47.8672 37.4879C48.8961 38.041 50.2276 38.3178 51.8616 38.3178C53.9067 38.3178 55.5987 37.8742 56.9366 36.9863C57.5715 36.5693 58.1311 36.0907 58.6152 35.5514V37.7004H63.2466V16.8604H57.9592V27.4346C57.9592 28.721 57.8111 29.7629 57.5154 30.5606C57.2322 31.3454 56.8658 31.9436 56.4152 32.3551C55.9651 32.7542 55.4828 33.024 54.9683 33.1656C54.4538 33.3073 53.9711 33.3781 53.521 33.3781C52.4019 33.3781 51.5335 33.127 50.916 32.6254C50.3114 32.1238 49.8742 31.4999 49.6038 30.7537C49.3339 30.0075 49.1729 29.2677 49.1214 28.5344C49.0699 27.7886 49.0443 27.1776 49.0443 26.7013V16.8604H43.7188V28.5537C43.7188 28.9013 43.744 29.4544 43.7955 30.2135C43.847 30.9725 43.9951 31.8148 44.2397 32.7413C44.4838 33.6544 44.8892 34.5358 45.4552 35.385C46.0341 36.2337 46.8382 36.9348 47.8672 37.4879Z" fill="#FF761B"/>
<path d="M122.285 16.8615V37.7015H127.572V27.05C127.572 26.2523 127.682 25.5382 127.9 24.9079C128.119 24.2647 128.441 23.7116 128.865 23.2486C129.29 22.7725 129.811 22.3931 130.428 22.1101C131.046 21.8142 131.734 21.6405 132.493 21.5891C133.264 21.5247 133.94 21.5826 134.519 21.7627V16.8615C133.888 16.7843 133.258 16.7714 132.628 16.8229C131.997 16.8615 131.386 16.9708 130.795 17.1509C130.203 17.3182 129.656 17.5561 129.155 17.8649C128.499 18.2508 127.945 18.7396 127.495 19.3314C127.282 19.6115 127.089 19.9061 126.916 20.215V16.8615H122.285Z" fill="#FF761B"/>
<path fill-rule="evenodd" clip-rule="evenodd" d="M145.568 38.2809C143.432 38.2809 141.547 37.8244 139.914 36.9108C138.293 35.9849 137.019 34.7177 136.093 33.1095C135.18 31.4888 134.723 29.6364 134.723 27.5522C134.723 25.2754 135.173 23.2943 136.074 21.609C136.974 19.9238 138.216 18.6181 139.798 17.6918C141.38 16.7528 143.201 16.2832 145.259 16.2832C147.446 16.2832 149.305 16.7978 150.835 17.8269C152.366 18.856 153.498 20.3032 154.232 22.1686C154.965 24.0341 155.222 26.2272 155.004 28.7485H140.37C140.534 29.9996 140.923 31.0157 141.535 31.7973C142.384 32.8524 143.625 33.3798 145.259 33.3798C146.288 33.3798 147.169 33.1545 147.902 32.7044C148.636 32.2543 149.195 31.6046 149.581 30.7554L154.83 32.2607C154.045 34.1646 152.804 35.6437 151.106 36.6984C149.421 37.7536 147.575 38.2809 145.568 38.2809ZM148.79 22.2458C149.239 22.8552 149.54 23.7237 149.693 24.8506H140.508C140.713 23.8883 141.055 23.097 141.535 22.4773C142.384 21.3838 143.702 20.8371 145.49 20.8371C147.022 20.8371 148.121 21.3067 148.79 22.2458Z" fill="#FF761B"/>
<path d="M167.309 37.7019V1.83984H172.558V37.7019H167.309Z" fill="#FF761B"/>
<path fill-rule="evenodd" clip-rule="evenodd" d="M178.399 37.4318C179.441 37.9977 180.708 38.2809 182.2 38.2809C184.001 38.2809 185.487 37.972 186.658 37.3545C187.591 36.8575 188.472 36.1209 189.301 35.1439V37.7021H193.894V24.9665C193.894 24.0147 193.855 23.1527 193.778 22.3809C193.701 21.609 193.456 20.8371 193.045 20.0653C192.312 18.6759 191.231 17.6983 189.803 17.1323C188.375 16.5662 186.741 16.2832 184.902 16.2832C182.393 16.2832 180.412 16.8235 178.958 17.9041C177.505 18.9847 176.514 20.3869 175.987 22.1107L180.734 23.6157C181.068 22.6638 181.654 22.0014 182.49 21.6283C183.326 21.2552 184.13 21.0687 184.902 21.0687C186.291 21.0687 187.282 21.3581 187.873 21.937C188.338 22.3916 188.621 23.0483 188.72 23.9076C187.832 24.0423 186.99 24.1701 186.195 24.2911C184.844 24.4842 183.635 24.6901 182.567 24.9085C181.499 25.1274 180.58 25.3784 179.808 25.6612C178.689 26.0727 177.794 26.5876 177.125 27.2051C176.469 27.8097 175.993 28.5104 175.697 29.3081C175.402 30.1058 175.254 30.9872 175.254 31.9518C175.254 33.1095 175.518 34.1706 176.045 35.1357C176.585 36.0874 177.37 36.8529 178.399 37.4318ZM185.751 33.6497C185.095 33.9844 184.284 34.1518 183.319 34.1518C182.715 34.1518 182.194 34.0616 181.757 33.8814C181.319 33.7012 180.978 33.4442 180.734 33.1095C180.502 32.7623 180.387 32.3504 180.387 31.8745C180.387 31.5274 180.457 31.212 180.599 30.9292C180.753 30.646 180.985 30.389 181.294 30.1573C181.615 29.9127 182.033 29.6878 182.548 29.4819C182.998 29.3145 183.519 29.16 184.111 29.0189C184.702 28.8773 185.481 28.7228 186.445 28.5554C187.066 28.44 187.808 28.3081 188.672 28.1605C188.66 28.5274 188.638 28.9421 188.607 29.4046C188.568 30.1508 188.414 30.8069 188.144 31.3729C188.002 31.6685 187.732 32.0354 187.333 32.4727C186.947 32.9099 186.42 33.3026 185.751 33.6497Z" fill="#FF761B"/>
<path fill-rule="evenodd" clip-rule="evenodd" d="M14.7529 17.0115H0.5V23.2184C0.5 32.4864 8.01338 40 17.2816 40C26.5499 40 34.0635 32.4864 34.0635 23.2184V17.0115H19.3506V7.12644C19.3506 3.19062 16.16 0 12.2241 0C8.28832 0 5.0977 3.19062 5.0977 7.12644H9.6954C9.6954 5.72984 10.8276 4.5977 12.2241 4.5977C13.6207 4.5977 14.7529 5.72984 14.7529 7.12644V17.0115ZM14.7529 21.6092V30.3448H19.3506V21.6092H29.4658V23.2184C29.4658 29.9476 24.0106 35.4023 17.2816 35.4023C10.5526 35.4023 5.0977 29.9476 5.0977 23.2184V21.6092H14.7529Z" fill="#FF761B"/>
</g>
<defs>
<clipPath id="clip0_19115_311">
<rect width="194" height="40" fill="white" transform="translate(0.5)"/>
</clipPath>
</defs>
</svg>
