<svg width="199" height="40" viewBox="0 0 199 40" fill="none" xmlns="http://www.w3.org/2000/svg">
<g clip-path="url(#clip0_19115_321)">
<path d="M79.8953 32.9916C79.3482 32.5227 79.0342 32.0308 79.0053 31.515L79.8953 32.9916ZM79.8953 32.9916L79.8981 32.9939C80.4929 33.4808 81.331 33.7129 82.3902 33.7129H84.7082H84.8631V33.558V33.2541V33.0992H84.7082H83.5442L83.1401 33.0257L83.1327 33.0243L83.1249 33.0234C82.884 33.0036 82.616 32.8404 82.3245 32.4777C82.0726 32.108 81.937 31.5747 81.937 30.8599V18.9652C81.937 17.6969 81.6128 16.6466 80.9527 15.8278L80.9508 15.8253C80.5187 15.3122 79.841 14.9328 78.9391 14.6747C78.0568 14.3897 76.9121 14.25 75.5118 14.25C74.0793 14.25 72.7658 14.7458 71.5756 15.729C70.624 16.4947 69.9082 17.3151 69.4346 18.1915V14.557V14.402H69.2793H66.6193H66.4643V14.557V33.558V33.7129H66.6193H69.2793H69.4346V33.558V20.0673C69.4346 19.1182 70.0424 18.0164 71.326 16.7578L71.3274 16.7567C72.5944 15.4897 74.0126 14.864 75.5876 14.864C76.3559 14.864 76.9889 14.9877 77.4937 15.2274C78.4518 15.7435 78.9671 16.9436 78.9671 18.9272V30.8599V30.8645V30.8691L79.0053 31.515L79.8953 32.9916ZM64.0687 8.69736L64.2117 8.75225L64.2682 8.61024L64.4204 8.23023L64.4815 8.0776L64.3257 8.0256C61.7268 7.15943 59.1643 6.72559 56.6381 6.72559C54.134 6.72559 52.2275 7.31298 50.9462 8.51512C49.67 9.68748 49.0347 11.2251 49.0347 13.1129C49.0347 15.4949 50.0226 17.3424 51.9917 18.6381C52.8605 19.2257 53.8177 19.7616 54.8627 20.2459L54.8659 20.2472C55.9049 20.7035 56.9314 21.1471 57.9456 21.578L57.947 21.5786C58.9795 22.0068 59.9233 22.4724 60.7775 22.975C62.6619 24.0907 63.5897 25.6263 63.5897 27.5917C63.5897 29.392 62.8785 30.7477 61.4556 31.68C60.0415 32.5981 58.3239 33.0611 56.2961 33.0611C54.9187 33.0611 53.5662 32.8606 52.2385 32.4602C50.9343 32.0336 49.8755 31.4966 49.0577 30.8521L48.9221 30.7449L48.8301 30.8916L48.6402 31.1959L48.5625 31.3205L48.6825 31.4046C50.9168 32.9714 53.6094 33.7511 56.7521 33.7511C58.4352 33.7511 59.9082 33.5599 61.1678 33.1741L61.1697 33.1737C62.4675 32.7581 63.5694 31.9793 64.4737 30.8424C65.3844 29.6972 65.8377 28.3194 65.8377 26.7176C65.8377 25.1061 65.5693 23.7745 65.0222 22.732C64.4797 21.6733 63.7667 20.8418 62.8812 20.2429C62.0114 19.6546 61.0534 19.1307 60.0066 18.6713C58.9648 18.2139 57.9226 17.8072 56.8804 17.4512C55.8727 17.0733 54.9417 16.6706 54.0866 16.2432C52.2022 15.2509 51.2828 13.867 51.2828 12.0869C51.2828 10.6118 51.8331 9.46832 52.9313 8.63833C54.0351 7.80424 55.5812 7.37762 57.5884 7.37762C59.6176 7.37762 61.7779 7.81611 64.0687 8.69736ZM85.675 16.9175C83.9161 18.7024 83.0458 21.2043 83.0458 24.3995C83.0458 27.5921 83.889 29.985 85.6047 31.5444C87.3102 33.0951 89.5156 33.8651 92.2073 33.8651C94.9293 33.8651 97.1746 32.9774 98.9294 31.1973C100.714 29.4126 101.597 26.9111 101.597 23.7155C101.597 20.523 100.754 18.1301 99.0379 16.5704C97.3319 15.0197 95.1137 14.25 92.3971 14.25C89.6995 14.25 87.4546 15.138 85.675 16.9175ZM87.8091 17.3858L87.81 17.385C89.0512 15.6969 90.6028 14.864 92.473 14.864C94.3528 14.864 95.8529 15.5782 96.988 17.0094C98.1217 18.4389 98.7023 20.6644 98.7023 23.7155C98.7023 26.7357 98.0729 29.0803 96.833 30.7675C95.5922 32.4298 94.0402 33.2509 92.1691 33.2509C90.2897 33.2509 88.7892 32.537 87.6541 31.1054C86.5204 29.6761 85.9398 27.4629 85.9398 24.4375C85.9398 21.391 86.5696 19.0469 87.8091 17.3858ZM127.489 14.6754L127.376 14.7886L127.493 14.8981C127.858 15.2402 128.052 15.7508 128.052 16.4571C128.052 17.1702 127.904 17.776 127.616 18.2803L127.612 18.2861L127.61 18.2922L122.256 29.8857L116.571 14.5033L116.534 14.402H116.426H113.766H113.544L113.62 14.6103L115.004 18.3885L109.715 29.8848L104.031 14.5033L103.993 14.402H103.885H101.225H101.002L101.08 14.6111L108.148 33.6123L108.186 33.7129H108.293H108.674H108.773L108.815 33.6224L115.347 19.2572L120.689 33.6123L120.726 33.7129H120.834H121.214H121.314L121.355 33.6224L128.272 18.4214L128.273 18.4183C128.584 17.6921 128.742 16.9747 128.742 16.2671C128.742 16.0777 128.715 15.8779 128.663 15.6683C128.632 15.4351 128.517 15.1878 128.337 14.9286C128.259 14.8002 128.186 14.6931 128.116 14.6098C128.048 14.5278 127.975 14.4579 127.896 14.4184L127.796 14.3684L127.717 14.4474L127.489 14.6754Z" fill="#FF761B"/>
<path d="M79.8953 32.9916C79.3482 32.5227 79.0342 32.0308 79.0053 31.515M79.8953 32.9916L79.0053 31.515M79.8953 32.9916L79.8981 32.9939C80.4929 33.4808 81.331 33.7129 82.3902 33.7129H84.7082H84.8631V33.558V33.2541V33.0992H84.7082H83.5442L83.1401 33.0256L83.1327 33.0243L83.1249 33.0234C82.884 33.0036 82.616 32.8404 82.3245 32.4777C82.0726 32.108 81.937 31.5747 81.937 30.8599V18.9652C81.937 17.6969 81.6128 16.6466 80.9527 15.8278L80.9508 15.8253C80.5187 15.3122 79.841 14.9328 78.9391 14.6747C78.0568 14.3897 76.9121 14.25 75.5118 14.25C74.0793 14.25 72.7658 14.7458 71.5756 15.729C70.624 16.4947 69.9082 17.3151 69.4346 18.1915V14.557V14.402H69.2793H66.6193H66.4643V14.557V33.558V33.7129H66.6193H69.2793H69.4346V33.558V20.0673C69.4346 19.1182 70.0424 18.0164 71.326 16.7578L71.3274 16.7567C72.5944 15.4897 74.0126 14.864 75.5876 14.864C76.3559 14.864 76.9889 14.9877 77.4937 15.2274C78.4518 15.7435 78.9671 16.9436 78.9671 18.9272V30.8599V30.8645V30.8691L79.0053 31.515M64.0687 8.69736L64.2117 8.75225L64.2682 8.61024L64.4204 8.23023L64.4815 8.0776L64.3257 8.0256C61.7268 7.15943 59.1643 6.72559 56.6381 6.72559C54.134 6.72559 52.2275 7.31298 50.9462 8.51512C49.67 9.68748 49.0347 11.2251 49.0347 13.1129C49.0347 15.4949 50.0226 17.3424 51.9917 18.6381C52.8605 19.2257 53.8177 19.7616 54.8627 20.2459L54.8659 20.2472C55.9049 20.7035 56.9314 21.1471 57.9456 21.578L57.947 21.5786C58.9795 22.0068 59.9233 22.4724 60.7775 22.975C62.6619 24.0907 63.5897 25.6263 63.5897 27.5917C63.5897 29.392 62.8785 30.7477 61.4556 31.68C60.0415 32.5981 58.3239 33.0611 56.2961 33.0611C54.9187 33.0611 53.5662 32.8606 52.2385 32.4602C50.9343 32.0336 49.8755 31.4966 49.0577 30.8521L48.9221 30.7449L48.8301 30.8916L48.6402 31.1959L48.5625 31.3205L48.6825 31.4046C50.9168 32.9714 53.6094 33.7511 56.7521 33.7511C58.4352 33.7511 59.9082 33.5599 61.1678 33.1741L61.1697 33.1737C62.4675 32.7581 63.5694 31.9793 64.4737 30.8424C65.3844 29.6972 65.8377 28.3194 65.8377 26.7176C65.8377 25.1061 65.5693 23.7745 65.0222 22.732C64.4797 21.6733 63.7667 20.8418 62.8812 20.2429C62.0114 19.6546 61.0534 19.1307 60.0066 18.6713C58.9648 18.2139 57.9226 17.8072 56.8804 17.4512C55.8727 17.0733 54.9417 16.6706 54.0866 16.2432C52.2022 15.2509 51.2828 13.867 51.2828 12.0869C51.2828 10.6118 51.8331 9.46832 52.9313 8.63833C54.0351 7.80424 55.5812 7.37762 57.5884 7.37762C59.6176 7.37762 61.7779 7.81611 64.0687 8.69736ZM85.675 16.9175C83.9161 18.7024 83.0458 21.2043 83.0458 24.3995C83.0458 27.5921 83.889 29.985 85.6047 31.5444C87.3102 33.0951 89.5156 33.8651 92.2073 33.8651C94.9293 33.8651 97.1746 32.9774 98.9294 31.1973C100.714 29.4126 101.597 26.9111 101.597 23.7155C101.597 20.523 100.754 18.1301 99.0379 16.5704C97.3319 15.0197 95.1137 14.25 92.3971 14.25C89.6995 14.25 87.4546 15.138 85.675 16.9175ZM87.8091 17.3858L87.81 17.385C89.0512 15.6969 90.6028 14.864 92.473 14.864C94.3528 14.864 95.8529 15.5782 96.988 17.0094C98.1217 18.4389 98.7023 20.6644 98.7023 23.7155C98.7023 26.7357 98.0729 29.0803 96.833 30.7675C95.5922 32.4298 94.0402 33.2509 92.1691 33.2509C90.2897 33.2509 88.7892 32.537 87.6541 31.1054C86.5204 29.6761 85.9398 27.4629 85.9398 24.4375C85.9398 21.391 86.5696 19.0469 87.8091 17.3858ZM127.489 14.6754L127.376 14.7886L127.493 14.8981C127.858 15.2402 128.052 15.7508 128.052 16.4571C128.052 17.1702 127.904 17.776 127.616 18.2803L127.612 18.2861L127.61 18.2922L122.256 29.8857L116.571 14.5033L116.534 14.402H116.426H113.766H113.544L113.62 14.6103L115.004 18.3885L109.715 29.8848L104.031 14.5033L103.993 14.402H103.885H101.225H101.002L101.08 14.6111L108.148 33.6123L108.186 33.7129H108.293H108.674H108.773L108.815 33.6224L115.347 19.2572L120.689 33.6123L120.726 33.7129H120.834H121.214H121.314L121.355 33.6224L128.272 18.4214L128.273 18.4183C128.584 17.6921 128.742 16.9747 128.742 16.2671C128.742 16.0777 128.715 15.8779 128.663 15.6683C128.632 15.4351 128.517 15.1878 128.337 14.9286C128.259 14.8002 128.186 14.6931 128.116 14.6098C128.048 14.5278 127.975 14.4579 127.896 14.4184L127.796 14.3684L127.717 14.4474L127.489 14.6754Z" stroke="#FF761B" stroke-width="0.674298"/>
<path d="M134.628 7.23171C135.341 6.13852 136.498 5.29161 138.104 5.21676L137.768 31.1242V31.1265C137.768 31.3605 137.841 31.6129 137.975 31.8795C138.599 33.1277 140.087 33.7134 142.332 33.7134H143.509H143.665V33.5584V33.2546V33.0996H143.509H142.345L141.941 33.0261L141.934 33.0247L141.927 33.0238C141.685 33.004 141.418 32.8408 141.126 32.4781C140.874 32.1085 140.739 31.5752 140.739 30.8603V5.09494V4.94245L140.586 4.93996L138.263 4.90194L138.108 4.89941V4.90401C135.507 4.95086 133.584 5.56234 132.376 6.77083C131.141 7.97968 130.543 9.99467 130.543 12.7713V14.4025H129.901H129.746V14.5574V15.1714V15.3264H129.901H130.543V33.5584V33.7134H130.699H133.359H133.514V33.5584V15.3264H136.361H136.516V15.1714V14.5574V14.4025H136.361H133.514V12.7713C133.514 10.169 133.894 8.33335 134.627 7.23299L134.628 7.23171ZM154.864 24.2691C154.346 24.2276 153.777 24.2069 153.157 24.2069C152.468 24.2069 151.716 24.2452 150.903 24.3214C149.264 24.4231 147.908 24.6141 146.838 24.8961C145.769 25.1776 144.971 25.5536 144.462 26.0355C143.972 26.4993 143.657 26.9414 143.545 27.3622C143.44 27.753 143.388 28.1212 143.388 28.466C143.388 28.7782 143.413 29.0903 143.465 29.4025C143.685 30.8741 144.26 31.9963 145.204 32.7484C146.145 33.4996 147.435 33.8655 149.053 33.8655C150.443 33.8655 151.651 33.5791 152.673 32.9999C153.545 32.5052 154.276 31.8004 154.864 30.8902V31.1265C154.864 31.5995 155.198 32.1199 155.784 32.6804C156.464 33.3856 157.698 33.7134 159.428 33.7134H160.605H160.76V33.5584V33.2546V33.0996H160.605H159.441L159.037 33.0261L159.03 33.0247L159.022 33.0238C158.781 33.004 158.514 32.8408 158.222 32.4781C157.97 32.1085 157.834 31.5752 157.834 30.8603V18.1296C157.834 17.2729 157.485 16.4649 156.807 15.7083C156.362 15.2096 155.691 14.8464 154.813 14.6074C153.934 14.3682 152.836 14.2504 151.523 14.2504C149.168 14.2504 146.853 14.7752 144.58 15.8227L144.426 15.8935L144.51 16.0404L144.662 16.3064L144.739 16.4404L144.873 16.3644C145.438 16.0451 146.334 15.7198 147.573 15.3913L147.574 15.3907C148.833 15.0384 149.92 14.8644 150.839 14.8644C151.764 14.8644 152.501 14.9898 153.057 15.2316L153.063 15.2338C153.631 15.4564 154.005 15.7203 154.208 16.0137C154.428 16.3326 154.599 16.6626 154.721 17.0037L154.724 17.0102L154.726 17.0165C154.871 17.33 154.908 17.5713 154.868 17.7521C154.842 17.8565 154.826 17.9495 154.826 18.0251C154.826 18.063 154.83 18.106 154.845 18.147C154.85 18.1601 154.856 18.174 154.864 18.1876V24.2691ZM146.433 29.3653V29.363C146.408 29.1133 146.396 28.8908 146.396 28.6941C146.396 27.6063 146.68 26.7741 147.229 26.177C147.496 25.8868 147.928 25.6317 148.543 25.4206C149.156 25.2101 149.939 25.0472 150.894 24.9339C151.573 24.8586 152.251 24.8209 152.929 24.8209C153.585 24.8209 154.23 24.8427 154.864 24.8863V29.3331C154.791 30.133 154.245 30.9959 153.17 31.9209C152.133 32.81 150.965 33.2513 149.661 33.2513C148.686 33.2513 147.944 32.9304 147.414 32.2997C146.879 31.6625 146.546 30.692 146.433 29.3653ZM163.992 5.05692V4.90194H163.836H161.176H161.021V5.05692V33.5584V33.7134H161.176H163.836H163.992V33.5584V24.458L164.847 23.4752L171.765 33.6458L171.811 33.7134H171.893H174.553H174.846L174.681 33.4711L166.579 21.5623L172.693 14.6602L172.921 14.4025H172.577H172.197H172.127L172.081 14.4546L163.992 23.5737V5.05692ZM189.459 32.2055L189.4 32.068L189.261 32.1218C187.305 32.8739 185.07 33.2513 182.552 33.2513C180.803 33.2513 179.392 32.5406 178.306 31.1095C177.246 29.6797 176.703 27.4151 176.703 24.286C176.703 23.6059 176.735 22.9482 176.801 22.3128H190.228H190.383V22.1578V22.1564V22.1548V22.1534V22.1519V22.1504V22.1489V22.1474V22.146V22.1444V22.143V22.1415V22.14V22.1385V22.137V22.1356V22.1341V22.1326V22.1311V22.1296V22.1281V22.1267V22.1252V22.1237V22.1222V22.1207V22.1192V22.1177V22.1163V22.1148V22.1133V22.1118V22.1103V22.1088V22.1074V22.1059V22.1044V22.1029V22.1014V22.0999V22.0984V22.097V22.0955V22.094V22.0925V22.091V22.0896V22.088V22.0866V22.0851V22.0836V22.0821V22.0806V22.0792V22.0777V22.0762V22.0747V22.0732V22.0717V22.0702V22.0688V22.0673V22.0658V22.0643V22.0628V22.0613V22.0599V22.0584V22.0569V22.0554V22.0539V22.0524V22.0509V22.0495V22.048V22.0465V22.045V22.0435V22.042V22.0406V22.0391V22.0376V22.0361V22.0346V22.0331V22.0316V22.0302V22.0287V22.0272V22.0257V22.0242V22.0228V22.0212V22.0198V22.0183V22.0168V22.0153V22.0138V22.0124V22.0109V22.0094V22.0079V22.0064V22.0049V22.0035V22.002V22.0005V21.999V21.9975V21.996V21.9945V21.9931V21.9916V21.9901V21.9886V21.9871V21.9856V21.9841V21.9827V21.9812V21.9797V21.9782V21.9767V21.9752V21.9738V21.9723V21.9708V21.9693V21.9678V21.9664V21.9648V21.9634V21.9619V21.9604V21.9589V21.9574V21.956V21.9544V21.953V21.9515V21.95V21.9485V21.947V21.9456V21.9441V21.9426V21.9411V21.9396V21.9381V21.9367V21.9351V21.9337V21.9322V21.9307V21.9292V21.9277V21.9263V21.9247V21.9233V21.9218V21.9203V21.9188V21.9173V21.9159V21.9144V21.9129V21.9114V21.9099V21.9084V21.907V21.9055V21.904V21.9025V21.901V21.8996V21.898V21.8966V21.8951V21.8936V21.8921V21.8906V21.8891V21.8876V21.8862V21.8847V21.8832V21.8817V21.8802V21.8787V21.8773V21.8758V21.8743V21.8728V21.8713V21.8699V21.8683V21.8669V21.8654V21.8639V21.8624V21.8609V21.8595V21.8579V21.8565V21.855V21.8535V21.852V21.8505V21.8491V21.8476V21.8461V21.8446V21.8431V21.8416V21.8402V21.8387V21.8372V21.8357V21.8342V21.8327V21.8312V21.8298V21.8283V21.8268V21.8253V21.8238V21.8223V21.8208V21.8194V21.8179V21.8164V21.8149V21.8134V21.8119V21.8105V21.809V21.8075V21.806V21.8045V21.8031V21.8015V21.8001V21.7986V21.7971V21.7956V21.7941V21.7927V21.7912V21.7897V21.7882V21.7867V21.7852V21.7837V21.7823V21.7808V21.7793V21.7778C190.383 19.3148 189.664 17.4297 188.202 16.1509C186.752 14.8822 184.967 14.2504 182.856 14.2504C180.232 14.2504 178.063 15.1395 176.36 16.9204C174.652 18.7054 173.808 21.206 173.808 24.4C173.808 27.5902 174.612 29.9822 176.251 31.5425C177.88 33.0941 179.985 33.8655 182.552 33.8655C185.127 33.8655 187.439 33.4702 189.486 32.6767L189.636 32.6188L189.573 32.4712L189.459 32.2055ZM186.116 16.5531C186.978 17.6547 187.443 19.3612 187.487 21.6988H176.878C177.192 19.5747 177.884 17.9168 178.943 16.7125C180.06 15.4725 181.312 14.8644 182.704 14.8644C184.099 14.8644 185.232 15.4241 186.116 16.5531Z" fill="#FF761B" stroke="#FF761B" stroke-width="0.674298"/>
<path d="M193.734 4.6582V5.66216H192.592V8.71663H191.509V5.66216H190.367V4.6582H193.734Z" fill="#FF761B"/>
<path d="M198.184 4.59668V8.73423H197.101V6.72632L196.307 7.66941H195.983L195.189 6.72632V8.73423H194.105V4.59668H194.487L196.144 6.36121L197.802 4.59668H198.184Z" fill="#FF761B"/>
<path fill-rule="evenodd" clip-rule="evenodd" d="M19.1104 26.9478L19.0939 39.9963L21.8522 40L21.8688 26.8905L26.9007 38.9955L29.4477 37.9367L24.4505 25.9149L33.6445 35.1324L35.5975 33.1845L26.364 23.9274L38.4404 28.9389L39.4973 26.3915L27.4197 21.379H40.4963V18.6207H27.4511L39.5088 13.6409L38.4556 11.0914L26.4496 16.0499L35.6816 6.91219L33.7415 4.95173L24.3947 14.2028L29.4316 2.05475L26.8834 0.998299L21.8864 13.0505L21.9029 0.00349342L19.1446 0L19.1279 13.1105L14.0956 1.00423L11.5485 2.06298L16.5454 14.0838L7.35192 4.867L5.399 6.81501L14.6328 16.0723L2.55622 11.0603L1.4989 13.608L13.5772 18.6207H0.5V21.379H13.5462L1.48809 26.359L2.54101 28.9086L14.5465 23.9503L5.31468 33.0875L7.2551 35.0483L16.6013 25.7975L11.5649 37.945L14.1129 39.0015L19.1104 26.9478Z" fill="#FF761B"/>
</g>
<defs>
<clipPath id="clip0_19115_321">
<rect width="198" height="40" fill="white" transform="translate(0.5)"/>
</clipPath>
</defs>
</svg>
