<svg width="175" height="40" viewBox="0 0 175 40" fill="none" xmlns="http://www.w3.org/2000/svg">
<g clip-path="url(#clip0_19115_328)">
<path d="M51.845 10.6592C53.4968 10.6592 54.9266 10.9345 56.1342 11.485C57.3596 12.0356 58.3008 12.817 58.9577 13.8293C59.615 14.8415 59.9437 16.0403 59.9437 17.4256C59.9437 18.793 59.615 19.9919 58.9577 21.0219C58.3008 22.0342 57.3596 22.8157 56.1342 23.366C54.9266 23.8989 53.4968 24.1654 51.845 24.1654H48.0888V29.3069H43.7734V10.6592H51.845ZM51.6056 20.6489C52.9017 20.6489 53.8877 20.3737 54.5623 19.8231C55.2375 19.2548 55.5746 18.4556 55.5746 17.4256C55.5746 16.3778 55.2375 15.5786 54.5623 15.028C53.8877 14.4597 52.9017 14.1756 51.6056 14.1756H48.0888V20.6489H51.6056Z" fill="#FF761B"/>
<path d="M65.3717 16.8662C65.8687 16.1736 66.5349 15.6497 67.3695 15.2945C68.2218 14.9393 69.1985 14.7617 70.2996 14.7617V18.5978C69.8381 18.5622 69.5272 18.5445 69.3673 18.5445C68.1774 18.5445 67.2451 18.8819 66.5705 19.5568C65.8953 20.2139 65.5578 21.2084 65.5578 22.5403V29.307H61.4023V14.9748H65.3717V16.8662Z" fill="#FF761B"/>
<path d="M78.1273 29.5198C76.618 29.5198 75.2594 29.2093 74.0517 28.5875C72.8618 27.9484 71.9296 27.0689 71.2544 25.9501C70.5798 24.8313 70.2422 23.5615 70.2422 22.1408C70.2422 20.72 70.5798 19.4502 71.2544 18.3314C71.9296 17.2126 72.8618 16.3423 74.0517 15.7207C75.2594 15.0814 76.618 14.7617 78.1273 14.7617C79.6369 14.7617 80.9867 15.0814 82.1766 15.7207C83.3665 16.3423 84.2988 17.2126 84.9739 18.3314C85.6486 19.4502 85.9861 20.72 85.9861 22.1408C85.9861 23.5615 85.6486 24.8313 84.9739 25.9501C84.2988 27.0689 83.3665 27.9484 82.1766 28.5875C80.9867 29.2093 79.6369 29.5198 78.1273 29.5198ZM78.1273 26.11C79.1932 26.11 80.0633 25.7547 80.738 25.0445C81.4309 24.3165 81.7769 23.3483 81.7769 22.1408C81.7769 20.9332 81.4309 19.9742 80.738 19.2638C80.0633 18.5356 79.1932 18.1716 78.1273 18.1716C77.0617 18.1716 76.1828 18.5356 75.4903 19.2638C74.7974 19.9742 74.451 20.9332 74.451 22.1408C74.451 23.3483 74.7974 24.3165 75.4903 25.0445C76.1828 25.7547 77.0617 26.11 78.1273 26.11Z" fill="#FF761B"/>
<path d="M104.826 10.6592V29.3069H101.283L91.9848 17.985V29.3069H87.7227V10.6592H91.2924L100.563 21.9809V10.6592H104.826Z" fill="#FF761B"/>
<path d="M113.393 14.7617C115.613 14.7617 117.318 15.2945 118.507 16.3601C119.697 17.4079 120.293 18.9974 120.293 21.1285V29.307H116.403V27.522C115.622 28.854 114.165 29.5198 112.034 29.5198C110.933 29.5198 109.974 29.3332 109.157 28.9606C108.358 28.5875 107.745 28.0727 107.319 27.4154C106.893 26.7585 106.68 26.0123 106.68 25.1777C106.68 23.8457 107.177 22.798 108.172 22.0343C109.184 21.2706 110.738 20.8888 112.833 20.8888H116.137C116.137 19.983 115.862 19.2904 115.311 18.8109C114.76 18.3136 113.934 18.065 112.833 18.065C112.07 18.065 111.315 18.1893 110.569 18.4379C109.841 18.6688 109.219 18.9885 108.704 19.3969L107.213 16.4933C107.994 15.9427 108.926 15.5165 110.009 15.2146C111.111 14.9127 112.239 14.7617 113.393 14.7617ZM113.073 26.7229C113.783 26.7229 114.414 26.563 114.964 26.2433C115.515 25.9057 115.906 25.4176 116.137 24.778V23.3127H113.286C111.581 23.3127 110.729 23.8724 110.729 24.9912C110.729 25.5242 110.933 25.9501 111.341 26.2699C111.768 26.5719 112.345 26.7229 113.073 26.7229Z" fill="#FF761B"/>
<path d="M131.968 28.6141C131.56 28.9161 131.054 29.147 130.45 29.3069C129.864 29.4486 129.243 29.5197 128.585 29.5197C126.881 29.5197 125.558 29.0849 124.616 28.2143C123.693 27.3442 123.231 26.0655 123.231 24.3786V18.4911H121.02V15.2944H123.231V11.8047H127.387V15.2944H130.956V18.4911H127.387V24.3253C127.387 24.9289 127.538 25.3997 127.84 25.7368C128.159 26.0566 128.603 26.2165 129.172 26.2165C129.829 26.2165 130.388 26.0389 130.85 25.684L131.968 28.6141Z" fill="#FF761B"/>
<path d="M147.405 14.9756V29.3078H143.462V27.6027C142.912 28.2241 142.255 28.7037 141.491 29.0413C140.727 29.3606 139.902 29.5205 139.014 29.5205C137.131 29.5205 135.64 28.9791 134.538 27.8958C133.437 26.8125 132.887 25.2051 132.887 23.0741V14.9756H137.042V22.4612C137.042 24.7699 138.01 25.9242 139.946 25.9242C140.941 25.9242 141.74 25.6049 142.344 24.9653C142.947 24.3084 143.249 23.3401 143.249 22.0616V14.9756H147.405Z" fill="#FF761B"/>
<path d="M153.896 16.8662C154.393 16.1736 155.059 15.6497 155.894 15.2945C156.746 14.9393 157.723 14.7617 158.824 14.7617V18.5978C158.362 18.5622 158.051 18.5445 157.892 18.5445C156.701 18.5445 155.769 18.8819 155.094 19.5568C154.419 20.2139 154.082 21.2084 154.082 22.5403V29.307H149.926V14.9748H153.896V16.8662Z" fill="#FF761B"/>
<path d="M173.87 22.1941C173.87 22.2472 173.844 22.6203 173.79 23.3127H162.948C163.144 24.201 163.605 24.9024 164.334 25.4176C165.062 25.9323 165.967 26.19 167.05 26.19C167.797 26.19 168.454 26.0834 169.022 25.8702C169.608 25.6397 170.15 25.2843 170.647 24.8046L172.858 27.2022C171.508 28.7474 169.537 29.5198 166.944 29.5198C165.328 29.5198 163.898 29.2093 162.655 28.5875C161.412 27.9484 160.453 27.0689 159.778 25.9501C159.103 24.8313 158.766 23.5615 158.766 22.1408C158.766 20.7378 159.094 19.4769 159.751 18.358C160.426 17.2214 161.341 16.3423 162.495 15.7207C163.667 15.0814 164.973 14.7617 166.411 14.7617C167.814 14.7617 169.084 15.0636 170.221 15.6674C171.357 16.2713 172.245 17.1415 172.885 18.2781C173.542 19.3969 173.87 20.7023 173.87 22.1941ZM166.438 17.9052C165.497 17.9052 164.706 18.1716 164.067 18.7043C163.427 19.2371 163.037 19.9653 162.895 20.8888H169.954C169.812 19.983 169.421 19.2638 168.782 18.731C168.143 18.1805 167.361 17.9052 166.438 17.9052Z" fill="#FF761B"/>
<path fill-rule="evenodd" clip-rule="evenodd" d="M20.1074 0.27472C19.4742 -0.0915733 18.6935 -0.0915733 18.0604 0.27472C13.5629 2.87635 10.5296 7.74404 10.5296 13.3226C10.5296 14.1177 10.5912 14.8984 10.7099 15.6601C7.61387 14.6087 4.26162 14.9913 1.52355 16.5691C0.889745 16.9342 0.499379 17.6103 0.500001 18.3418C0.503243 22.2009 2.50797 25.9621 6.09833 28.035C7.85971 29.0521 9.78223 29.5353 11.6786 29.5362C11.3901 30.3534 11.2331 31.2333 11.2331 32.1496C11.2331 36.4854 14.7479 40 19.0836 40C23.4195 40 26.934 36.4854 26.934 32.1496C26.934 31.2311 26.7764 30.3499 26.4868 29.5309C28.2701 29.4745 30.0662 28.9903 31.7202 28.035C35.3108 25.9621 37.3152 22.2011 37.3183 18.342C37.3192 17.6105 36.9288 16.9344 36.295 16.5692C33.6647 15.0536 30.4677 14.6408 27.4759 15.5427C27.583 14.8182 27.638 14.0769 27.638 13.3226C27.638 7.74404 24.6049 2.87635 20.1074 0.27472ZM14.6177 13.3226C14.6177 9.70005 16.3718 6.48522 19.0839 4.48414C21.796 6.48522 23.55 9.70005 23.55 13.3226C23.55 16.9452 21.796 20.16 19.0839 22.1611C16.3718 20.16 14.6177 16.9452 14.6177 13.3226ZM27.1455 20.1114C29.0331 19.0215 31.2143 18.8947 33.1198 19.5844C32.7644 21.5793 31.5639 23.4047 29.6762 24.4946C27.7886 25.5846 25.6074 25.7111 23.7019 25.0218C24.0573 23.0267 25.2578 21.2013 27.1455 20.1114ZM4.69889 19.5842C6.60422 18.8946 8.78537 19.0214 10.6731 20.1112C12.5608 21.2011 13.7612 23.0267 14.1166 25.0214C12.2113 25.7111 10.0301 25.5846 8.14241 24.4946C6.25472 23.4047 5.0543 21.5791 4.69889 19.5842ZM15.3213 32.1496C15.3213 30.0718 17.0057 28.3872 19.0836 28.3872C21.1615 28.3872 22.8461 30.0718 22.8461 32.1496C22.8461 34.2273 21.1615 35.912 19.0836 35.912C17.0057 35.912 15.3213 34.2273 15.3213 32.1496Z" fill="#FF761B"/>
</g>
<defs>
<clipPath id="clip0_19115_328">
<rect width="174" height="40" fill="white" transform="translate(0.5)"/>
</clipPath>
</defs>
</svg>
