<svg width="41" height="36" viewBox="0 0 41 36" fill="none" xmlns="http://www.w3.org/2000/svg">
<path d="M4.48042 0.5L0.5 4.0388V8.50616L9.50372 0.5H4.48042Z" fill="black"/>
<path d="M13.5624 0.5L0.5 12.1156V16.5836L18.585 0.5H13.5624Z" fill="black"/>
<path d="M34.3947 12.8303V4.67482H29.6657V8.62512L21.5854 1.43994L0.5 20.1916V29.4309C18.6201 13.3157 9.71498 21.2351 20.4986 11.6462L40.5 29.4309V18.2585L34.3947 12.8303Z" fill="#FF761B"/>
<path d="M27.7981 21.7683H22.4414V27.1044H27.7981V21.7683Z" fill="black"/>
<path d="M18.8971 21.7683H13.5391V27.1044H18.8971V21.7683Z" fill="black"/>
<path d="M27.7981 30.1638H22.4414V35.4999H27.7981V30.1638Z" fill="black"/>
<path d="M18.8971 30.1638H13.5391V35.4999H18.8971V30.1638Z" fill="black"/>
</svg>
