<svg width="199" height="42" viewBox="0 0 199 42" fill="none" xmlns="http://www.w3.org/2000/svg">
<path d="M4.48042 3.5L0.5 7.0388V11.5062L9.50372 3.5H4.48042Z" fill="black"/>
<path d="M13.5624 3.5L0.5 15.1156V19.5836L18.585 3.5H13.5624Z" fill="black"/>
<path d="M34.3947 15.8303V7.67482H29.6657V11.6251L21.5854 4.43994L0.5 23.1916V32.4309C18.6201 16.3157 9.71498 24.2351 20.4986 14.6462L40.5 32.4309V21.2585L34.3947 15.8303Z" fill="#FF761B"/>
<path d="M27.7981 24.7683H22.4414V30.1044H27.7981V24.7683Z" fill="black"/>
<path d="M18.8971 24.7683H13.5391V30.1044H18.8971V24.7683Z" fill="black"/>
<path d="M27.7981 33.1638H22.4414V38.4999H27.7981V33.1638Z" fill="black"/>
<path d="M18.8971 33.1638H13.5391V38.4999H18.8971V33.1638Z" fill="black"/>
<path d="M54.644 32V10.624H59.636L68.724 24.96V10.624H73.396V32H68.404L59.316 17.664V32H54.644ZM85.1953 32.32C83.6379 32.32 82.2193 32.032 80.9393 31.456C79.6593 30.8587 78.6353 29.984 77.8673 28.832C77.0993 27.6587 76.7153 26.208 76.7153 24.48C76.7153 22.88 77.0673 21.4933 77.7713 20.32C78.4753 19.1467 79.4246 18.24 80.6193 17.6C81.8139 16.96 83.1579 16.64 84.6513 16.64C86.1659 16.64 87.4886 16.9173 88.6193 17.472C89.7713 18.0267 90.6673 18.8053 91.3073 19.808C91.9473 20.7893 92.2673 21.92 92.2673 23.2C92.2673 23.584 92.2139 24.0107 92.1073 24.48C92.0006 24.928 91.8619 25.312 91.6912 25.632H81.2273C81.3339 26.3147 81.5686 26.8907 81.9313 27.36C82.2939 27.808 82.7953 28.1493 83.4353 28.384C84.0753 28.6187 84.8113 28.736 85.6433 28.736C86.5179 28.736 87.3393 28.608 88.1073 28.352C88.8753 28.0747 89.6006 27.712 90.2833 27.264L91.6273 30.368C90.7099 31.008 89.7073 31.4987 88.6193 31.84C87.5526 32.16 86.4113 32.32 85.1953 32.32ZM81.2273 22.752H87.7233C87.7446 22.7093 87.7553 22.6667 87.7553 22.624C87.7553 22.5813 87.7553 22.5173 87.7553 22.432C87.7553 21.9413 87.6486 21.5253 87.4353 21.184C87.2219 20.8213 86.8913 20.544 86.4433 20.352C86.0166 20.1387 85.4619 20.032 84.7793 20.032C84.1606 20.032 83.5953 20.1493 83.0833 20.384C82.5926 20.5973 82.1873 20.9067 81.8673 21.312C81.5473 21.7173 81.3339 22.1973 81.2273 22.752ZM91.916 32L97.292 24.224L92.236 16.96H97.164L100.076 21.6L102.988 16.96H107.916L102.828 24.224L108.236 32H103.308L100.076 27.104L96.844 32H91.916ZM117.616 32.192C115.739 32.192 114.384 31.7867 113.552 30.976C112.742 30.1653 112.336 28.9173 112.336 27.232V20.576H109.296V16.96H112.336V12.672H116.784V16.96H120.432V20.576H116.784V26.784C116.784 27.3813 116.934 27.8293 117.232 28.128C117.552 28.4267 118.011 28.576 118.608 28.576C118.864 28.576 119.174 28.5653 119.536 28.544C119.899 28.5227 120.198 28.4907 120.432 28.448V31.872C120.07 31.9787 119.632 32.0533 119.12 32.096C118.63 32.16 118.128 32.192 117.616 32.192ZM123.707 32V10.624H134.107C135.835 10.624 137.275 10.816 138.427 11.2C139.6 11.584 140.475 12.1813 141.051 12.992C141.648 13.7813 141.947 14.8267 141.947 16.128C141.947 17.3227 141.68 18.336 141.147 19.168C140.613 19.9787 139.739 20.5867 138.523 20.992C139.952 21.3547 140.987 21.9733 141.627 22.848C142.267 23.7227 142.587 24.832 142.587 26.176C142.587 28.1813 141.904 29.6533 140.539 30.592C139.173 31.5307 137.019 32 134.075 32H123.707ZM128.379 28.256H133.531C134.597 28.256 135.44 28.1707 136.059 28C136.699 27.808 137.157 27.5093 137.435 27.104C137.712 26.6987 137.851 26.1653 137.851 25.504C137.851 24.8427 137.712 24.3093 137.435 23.904C137.157 23.4987 136.699 23.2107 136.059 23.04C135.44 22.848 134.597 22.752 133.531 22.752H128.379V28.256ZM128.379 19.232H133.531C134.917 19.232 135.877 19.0507 136.411 18.688C136.944 18.304 137.211 17.6747 137.211 16.8C137.211 15.9467 136.944 15.328 136.411 14.944C135.899 14.56 134.939 14.368 133.531 14.368H128.379V19.232ZM151.173 32.32C149.488 32.32 148.155 31.84 147.173 30.88C146.192 29.8987 145.701 28.3947 145.701 26.368V16.96H150.117V25.696C150.117 26.6347 150.32 27.3387 150.725 27.808C151.131 28.256 151.739 28.48 152.549 28.48C153.509 28.48 154.267 28.1707 154.821 27.552C155.397 26.912 155.685 25.9947 155.685 24.8V16.96H160.101V32H155.909V30.176C155.44 30.8373 154.811 31.36 154.021 31.744C153.253 32.128 152.304 32.32 151.173 32.32ZM163.951 32V16.96H168.367V32H163.951ZM166.159 14.656C165.37 14.656 164.751 14.432 164.303 13.984C163.855 13.5147 163.631 12.928 163.631 12.224C163.631 11.52 163.855 10.944 164.303 10.496C164.751 10.048 165.37 9.824 166.159 9.824C166.927 9.824 167.535 10.0587 167.983 10.528C168.453 10.976 168.687 11.552 168.687 12.256C168.687 12.96 168.453 13.536 167.983 13.984C167.535 14.432 166.927 14.656 166.159 14.656ZM172.201 32V10.624H176.617V32H172.201ZM186.915 32.32C185.571 32.32 184.355 32.0107 183.267 31.392C182.179 30.752 181.315 29.8453 180.675 28.672C180.035 27.4773 179.715 26.08 179.715 24.48C179.715 22.8587 180.035 21.4613 180.675 20.288C181.315 19.1147 182.179 18.2187 183.267 17.6C184.355 16.96 185.571 16.64 186.915 16.64C187.939 16.64 188.835 16.8213 189.603 17.184C190.371 17.5253 190.99 17.9947 191.459 18.592V10.624H195.907V32H191.715V30.08C191.246 30.7627 190.595 31.3067 189.763 31.712C188.953 32.1173 188.003 32.32 186.915 32.32ZM187.939 28.48C188.686 28.48 189.337 28.32 189.891 28C190.446 27.68 190.883 27.2213 191.203 26.624C191.523 26.0053 191.683 25.2907 191.683 24.48C191.683 23.648 191.523 22.9333 191.203 22.336C190.883 21.7387 190.446 21.28 189.891 20.96C189.337 20.64 188.686 20.48 187.939 20.48C187.214 20.48 186.563 20.64 185.987 20.96C185.433 21.28 184.995 21.7387 184.675 22.336C184.377 22.9333 184.227 23.648 184.227 24.48C184.227 25.2907 184.377 26.0053 184.675 26.624C184.995 27.2213 185.433 27.68 185.987 28C186.563 28.32 187.214 28.48 187.939 28.48Z" fill="black"/>
</svg>
