<svg width="306" height="38" viewBox="0 0 306 38" fill="none" xmlns="http://www.w3.org/2000/svg">
<path d="M3.98042 1.5L0 5.0388V9.50616L9.00372 1.5H3.98042Z" fill="white"/>
<path d="M13.0624 1.5L0 13.1156V17.5836L18.085 1.5H13.0624Z" fill="white"/>
<path d="M33.8947 13.8307V5.67531H29.1657V9.62561L21.0854 2.44043L0 21.1921V30.4314C18.1201 14.3162 9.21498 22.2356 19.9986 12.6467L40 30.4314V19.259L33.8947 13.8307Z" fill="#FF761B"/>
<path d="M27.2981 22.7686H21.9414V28.1047H27.2981V22.7686Z" fill="white"/>
<path d="M18.3971 22.7686H13.0391V28.1047H18.3971V22.7686Z" fill="white"/>
<path d="M27.2981 31.1641H21.9414V36.5002H27.2981V31.1641Z" fill="white"/>
<path d="M18.3971 31.1641H13.0391V36.5002H18.3971V31.1641Z" fill="white"/>
<path d="M54.144 30V8.624H59.136L68.224 22.96V8.624H72.896V30H67.904L58.816 15.664V30H54.144ZM84.6953 30.32C83.1379 30.32 81.7193 30.032 80.4393 29.456C79.1593 28.8587 78.1353 27.984 77.3673 26.832C76.5993 25.6587 76.2153 24.208 76.2153 22.48C76.2153 20.88 76.5673 19.4933 77.2713 18.32C77.9753 17.1467 78.9246 16.24 80.1193 15.6C81.3139 14.96 82.6579 14.64 84.1513 14.64C85.6659 14.64 86.9886 14.9173 88.1193 15.472C89.2713 16.0267 90.1673 16.8053 90.8073 17.808C91.4473 18.7893 91.7673 19.92 91.7673 21.2C91.7673 21.584 91.7139 22.0107 91.6073 22.48C91.5006 22.928 91.3619 23.312 91.1912 23.632H80.7273C80.8339 24.3147 81.0686 24.8907 81.4313 25.36C81.7939 25.808 82.2953 26.1493 82.9353 26.384C83.5753 26.6187 84.3113 26.736 85.1433 26.736C86.0179 26.736 86.8393 26.608 87.6073 26.352C88.3753 26.0747 89.1006 25.712 89.7833 25.264L91.1273 28.368C90.2099 29.008 89.2073 29.4987 88.1193 29.84C87.0526 30.16 85.9113 30.32 84.6953 30.32ZM80.7273 20.752H87.2233C87.2446 20.7093 87.2553 20.6667 87.2553 20.624C87.2553 20.5813 87.2553 20.5173 87.2553 20.432C87.2553 19.9413 87.1486 19.5253 86.9353 19.184C86.7219 18.8213 86.3913 18.544 85.9433 18.352C85.5166 18.1387 84.9619 18.032 84.2793 18.032C83.6606 18.032 83.0953 18.1493 82.5833 18.384C82.0926 18.5973 81.6873 18.9067 81.3673 19.312C81.0473 19.7173 80.8339 20.1973 80.7273 20.752ZM91.416 30L96.792 22.224L91.736 14.96H96.664L99.576 19.6L102.488 14.96H107.416L102.328 22.224L107.736 30H102.808L99.576 25.104L96.344 30H91.416ZM117.116 30.192C115.239 30.192 113.884 29.7867 113.052 28.976C112.242 28.1653 111.836 26.9173 111.836 25.232V18.576H108.796V14.96H111.836V10.672H116.284V14.96H119.932V18.576H116.284V24.784C116.284 25.3813 116.434 25.8293 116.732 26.128C117.052 26.4267 117.511 26.576 118.108 26.576C118.364 26.576 118.674 26.5653 119.036 26.544C119.399 26.5227 119.698 26.4907 119.932 26.448V29.872C119.57 29.9787 119.132 30.0533 118.62 30.096C118.13 30.16 117.628 30.192 117.116 30.192ZM123.207 30V8.624H133.607C135.335 8.624 136.775 8.816 137.927 9.2C139.1 9.584 139.975 10.1813 140.551 10.992C141.148 11.7813 141.447 12.8267 141.447 14.128C141.447 15.3227 141.18 16.336 140.647 17.168C140.113 17.9787 139.239 18.5867 138.023 18.992C139.452 19.3547 140.487 19.9733 141.127 20.848C141.767 21.7227 142.087 22.832 142.087 24.176C142.087 26.1813 141.404 27.6533 140.039 28.592C138.673 29.5307 136.519 30 133.575 30H123.207ZM127.879 26.256H133.031C134.097 26.256 134.94 26.1707 135.559 26C136.199 25.808 136.657 25.5093 136.935 25.104C137.212 24.6987 137.351 24.1653 137.351 23.504C137.351 22.8427 137.212 22.3093 136.935 21.904C136.657 21.4987 136.199 21.2107 135.559 21.04C134.94 20.848 134.097 20.752 133.031 20.752H127.879V26.256ZM127.879 17.232H133.031C134.417 17.232 135.377 17.0507 135.911 16.688C136.444 16.304 136.711 15.6747 136.711 14.8C136.711 13.9467 136.444 13.328 135.911 12.944C135.399 12.56 134.439 12.368 133.031 12.368H127.879V17.232ZM150.673 30.32C148.988 30.32 147.655 29.84 146.673 28.88C145.692 27.8987 145.201 26.3947 145.201 24.368V14.96H149.617V23.696C149.617 24.6347 149.82 25.3387 150.225 25.808C150.631 26.256 151.239 26.48 152.049 26.48C153.009 26.48 153.767 26.1707 154.321 25.552C154.897 24.912 155.185 23.9947 155.185 22.8V14.96H159.601V30H155.409V28.176C154.94 28.8373 154.311 29.36 153.521 29.744C152.753 30.128 151.804 30.32 150.673 30.32ZM163.451 30V14.96H167.867V30H163.451ZM165.659 12.656C164.87 12.656 164.251 12.432 163.803 11.984C163.355 11.5147 163.131 10.928 163.131 10.224C163.131 9.52 163.355 8.944 163.803 8.496C164.251 8.048 164.87 7.824 165.659 7.824C166.427 7.824 167.035 8.05867 167.483 8.528C167.953 8.976 168.187 9.552 168.187 10.256C168.187 10.96 167.953 11.536 167.483 11.984C167.035 12.432 166.427 12.656 165.659 12.656ZM171.701 30V8.624H176.117V30H171.701ZM186.415 30.32C185.071 30.32 183.855 30.0107 182.767 29.392C181.679 28.752 180.815 27.8453 180.175 26.672C179.535 25.4773 179.215 24.08 179.215 22.48C179.215 20.8587 179.535 19.4613 180.175 18.288C180.815 17.1147 181.679 16.2187 182.767 15.6C183.855 14.96 185.071 14.64 186.415 14.64C187.439 14.64 188.335 14.8213 189.103 15.184C189.871 15.5253 190.49 15.9947 190.959 16.592V8.624H195.407V30H191.215V28.08C190.746 28.7627 190.095 29.3067 189.263 29.712C188.453 30.1173 187.503 30.32 186.415 30.32ZM187.439 26.48C188.186 26.48 188.837 26.32 189.391 26C189.946 25.68 190.383 25.2213 190.703 24.624C191.023 24.0053 191.183 23.2907 191.183 22.48C191.183 21.648 191.023 20.9333 190.703 20.336C190.383 19.7387 189.946 19.28 189.391 18.96C188.837 18.64 188.186 18.48 187.439 18.48C186.714 18.48 186.063 18.64 185.487 18.96C184.933 19.28 184.495 19.7387 184.175 20.336C183.877 20.9333 183.727 21.648 183.727 22.48C183.727 23.2907 183.877 24.0053 184.175 24.624C184.495 25.2213 184.933 25.68 185.487 26C186.063 26.32 186.714 26.48 187.439 26.48Z" fill="white"/>
</svg>
